<svg xmlns="http://www.w3.org/2000/svg" viewBox="0 0 48 48" width="24px" height="24px">
  <path d="M 32.519531 0.98242188 A 1.50015 1.50015 0 0 0 31.279297 1.6289062 L 29.4375 4.2089844 C 27.780207 3.4405006 25.94191 3 24 3 C 22.05809 3 20.219793 3.4405006 18.5625 4.2089844 L 16.720703 1.6289062 A 1.50015 1.50015 0 0 0 15.435547 0.984375 A 1.50015 1.50015 0 0 0 14.279297 3.3710938 L 16 5.7792969 C 13.138896 8.0247582 11.245188 11.43602 11.035156 15.291016 C 10.55326 15.112818 10.040408 15 9.5 15 C 7.0324991 15 5 17.032499 5 19.5 L 5 30.5 C 5 32.967501 7.0324991 35 9.5 35 C 10.090313 35 10.653229 34.878749 11.171875 34.667969 C 11.564336 36.072105 12.631333 37.196994 14 37.693359 L 14 41.5 C 14 43.967501 16.032499 46 18.5 46 C 20.967501 46 23 43.967501 23 41.5 L 23 38 L 25 38 L 25 41.5 C 25 43.967501 27.032499 46 29.5 46 C 31.967501 46 34 43.967501 34 41.5 L 34 37.693359 C 35.368667 37.196994 36.435664 36.072105 36.828125 34.667969 C 37.346771 34.878749 37.909687 35 38.5 35 C 40.967501 35 43 32.967501 43 30.5 L 43 19.5 C 43 17.032499 40.967501 15 38.5 15 C 37.959592 15 37.44674 15.112818 36.964844 15.291016 C 36.754812 11.43602 34.861104 8.0247582 32 5.7792969 L 33.720703 3.3710938 A 1.50015 1.50015 0 0 0 32.519531 0.98242188 z M 24 6 C 29.185127 6 33.276727 9.9575132 33.798828 15 L 14.201172 15 C 14.723273 9.9575132 18.814873 6 24 6 z M 19.5 10 A 1.5 1.5 0 0 0 19.5 13 A 1.5 1.5 0 0 0 19.5 10 z M 28.5 10 A 1.5 1.5 0 0 0 28.5 13 A 1.5 1.5 0 0 0 28.5 10 z M 9.5 18 C 10.346499 18 11 18.653501 11 19.5 L 11 30.5 C 11 31.346499 10.346499 32 9.5 32 C 8.6535009 32 8 31.346499 8 30.5 L 8 19.5 C 8 18.653501 8.6535009 18 9.5 18 z M 14 18 L 34 18 L 34 19.5 L 34 30.5 L 34 33.5 C 34 34.346499 33.346499 35 32.5 35 L 25 35 L 23 35 L 15.5 35 C 14.653501 35 14 34.346499 14 33.5 L 14 30.5 L 14 19.5 L 14 18 z M 38.5 18 C 39.346499 18 40 18.653501 40 19.5 L 40 30.5 C 40 31.346499 39.346499 32 38.5 32 C 37.653501 32 37 31.346499 37 30.5 L 37 19.5 C 37 18.653501 37.653501 18 38.5 18 z M 17 38 L 20 38 L 20 41.5 C 20 42.346499 19.346499 43 18.5 43 C 17.653501 43 17 42.346499 17 41.5 L 17 38 z M 28 38 L 31 38 L 31 41.5 C 31 42.346499 30.346499 43 29.5 43 C 28.653501 43 28 42.346499 28 41.5 L 28 38 z" fill="#181818" />
</svg>