<svg xmlns="http://www.w3.org/2000/svg" viewBox="0 0 48 48" width="24px" height="24px">
  <path d="M 24.5 1 C 16.509415 1 10 7.509415 10 15.5 L 10 18 L 9.5 18 A 1.50015 1.50015 0 0 0 8 19.5 L 8 40.5 C 8 43.519774 10.480226 46 13.5 46 L 35.5 46 C 38.519774 46 41 43.519774 41 40.5 L 41 19.5 A 1.50015 1.50015 0 0 0 39.5 18 L 39 18 L 39 15.5 C 39 7.509415 32.490585 1 24.5 1 z M 24.5 4 C 30.869415 4 36 9.130585 36 15.5 L 36 18 L 13 18 L 13 15.5 C 13 9.130585 18.130585 4 24.5 4 z M 11 21 L 11.253906 21 A 1.50015 1.50015 0 0 0 11.740234 21 L 14.5 21 L 15 21 C 16.657 21 18 22.343 18 24 L 18 29.5 C 18 30.881 19.119 32 20.5 32 C 21.881 32 23 30.881 23 29.5 L 23 25 C 23 23.895 23.895 23 25 23 C 26.105 23 27 23.895 27 25 L 27 25.5 C 27 26.881 28.119 28 29.5 28 C 30.881 28 32 26.881 32 25.5 L 32 24 C 32 22.343 33.343 21 35 21 L 36 21 L 37.253906 21 A 1.50015 1.50015 0 0 0 37.740234 21 L 38 21 L 38 40.5 C 38 41.898226 36.898226 43 35.5 43 L 13.5 43 C 12.101774 43 11 41.898226 11 40.5 L 11 21 z" fill="#181818" />
</svg>