<svg xmlns="http://www.w3.org/2000/svg" viewBox="0 0 48 48" width="24px" height="24px">
  <path d="M 14.476562 4.9785156 A 1.50015 1.50015 0 0 0 13 6.5 L 13 9.5 A 1.50015 1.50015 0 0 0 13.439453 10.560547 L 15.554688 12.675781 C 14.575914 14.220498 14 16.043939 14 18 L 14 18.5 A 1.50015 1.50015 0 0 0 14.058594 18.9375 L 11.560547 16.439453 A 1.50015 1.50015 0 0 0 10.912109 16.058594 L 3.9121094 14.058594 A 1.50015 1.50015 0 1 0 3.0878906 16.941406 L 9.7148438 18.835938 L 12.53125 21.652344 C 12.442092 21.769791 12.364401 21.895367 12.279297 22.015625 A 1.50015 1.50015 0 0 0 12.253906 22.019531 L 6.2539062 23.019531 A 1.50015 1.50015 0 0 0 5.2128906 23.728516 L 2.2128906 28.728516 A 1.5006126 1.5006126 0 1 0 4.7871094 30.271484 L 7.4296875 25.865234 L 10.595703 25.337891 C 10.216659 26.496537 10 27.721471 10 29 C 10 31.201823 10.764974 33.273468 11.933594 35.123047 L 9.0664062 39.21875 L 3.0585938 41.066406 A 1.50015 1.50015 0 1 0 3.9414062 43.933594 L 10.441406 41.933594 A 1.50015 1.50015 0 0 0 11.228516 41.359375 L 13.851562 37.611328 C 14.213778 38.001755 14.586837 38.380198 14.974609 38.736328 C 17.722639 41.260115 20.998015 43 24 43 C 27.001985 43 30.277361 41.260115 33.025391 38.736328 C 33.258661 38.522093 33.480365 38.291315 33.705078 38.064453 L 36.316406 41.421875 A 1.50015 1.50015 0 0 0 37.087891 41.941406 L 44.087891 43.941406 A 1.50015 1.50015 0 1 0 44.912109 41.058594 L 38.382812 39.191406 L 35.679688 35.716797 C 37.070171 33.723339 38 31.439765 38 29 C 38 27.721471 37.783341 26.496537 37.404297 25.337891 L 40.570312 25.865234 L 43.212891 30.271484 A 1.5006123 1.5006123 0 1 0 45.787109 28.728516 L 42.787109 23.728516 A 1.50015 1.50015 0 0 0 41.746094 23.019531 L 35.746094 22.019531 A 1.50015 1.50015 0 0 0 35.720703 22.015625 C 35.635599 21.895367 35.557908 21.769791 35.46875 21.652344 L 38.207031 18.914062 L 44.712891 17.984375 A 1.50015 1.50015 0 1 0 44.287109 15.015625 L 37.287109 16.015625 A 1.50015 1.50015 0 0 0 36.439453 16.439453 L 33.939453 18.939453 A 1.50015 1.50015 0 0 0 34 18.5 L 34 18 C 34 16.30361 33.570128 14.705359 32.818359 13.302734 L 35.560547 10.560547 A 1.50015 1.50015 0 0 0 36 9.5 L 36 6.5 A 1.50015 1.50015 0 0 0 34.476562 4.9785156 A 1.50015 1.50015 0 0 0 33 6.5 L 33 8.8789062 L 31.001953 10.876953 C 29.522612 9.4224438 27.593073 8.4319966 25.449219 8.1171875 A 1.5 1.5 0 0 0 24 7 A 1.5 1.5 0 0 0 22.550781 8.1171875 C 20.650804 8.3961851 18.922147 9.2075343 17.523438 10.402344 L 16 8.8789062 L 16 6.5 A 1.50015 1.50015 0 0 0 14.476562 4.9785156 z M 24 11 C 27.825809 11 30.90196 14.027084 30.992188 17.830078 C 28.887582 16.671388 26.481074 16 24 16 C 21.518926 16 19.112418 16.671388 17.007812 17.830078 C 17.045527 16.240473 17.604495 14.788506 18.523438 13.634766 A 1.50015 1.50015 0 0 0 18.787109 13.326172 C 20.066107 11.899243 21.920304 11 24 11 z M 24 19 C 29.707846 19 35 23.593733 35 29 C 35 31.560951 33.324564 34.38888 30.996094 36.527344 C 29.256247 38.125216 27.157005 39.273227 25.5 39.751953 L 25.5 27.5 A 1.50015 1.50015 0 0 0 23.976562 25.978516 A 1.50015 1.50015 0 0 0 22.5 27.5 L 22.5 39.751953 C 20.842995 39.273227 18.743753 38.125216 17.003906 36.527344 C 14.675436 34.38888 13 31.560951 13 29 C 13 23.593733 18.292154 19 24 19 z" fill="#181818" />
</svg>