<svg xmlns="http://www.w3.org/2000/svg" viewBox="0 0 48 48" width="24px" height="24px">
  <path d="M 20.460938 3.9804688 A 1.50015 1.50015 0 0 0 19.025391 5.2207031 L 16.986328 16 L 7.5 16 A 1.50015 1.50015 0 1 0 7.5 19 L 16.417969 19 L 14.527344 29 L 5.5 29 A 1.50015 1.50015 0 1 0 5.5 32 L 13.958984 32 L 12.025391 42.220703 A 1.5008259 1.5008259 0 1 0 14.974609 42.779297 L 17.013672 32 L 27.958984 32 L 26.025391 42.220703 A 1.5008259 1.5008259 0 0 0 28.974609 42.779297 L 31.013672 32 L 40.5 32 A 1.50015 1.50015 0 1 0 40.5 29 L 31.582031 29 L 33.472656 19 L 42.5 19 A 1.50015 1.50015 0 1 0 42.5 16 L 34.041016 16 L 35.974609 5.7792969 A 1.5008259 1.5008259 0 0 0 33.025391 5.2207031 L 30.986328 16 L 20.041016 16 L 21.974609 5.7792969 A 1.50015 1.50015 0 0 0 20.460938 3.9804688 z M 19.472656 19 L 30.417969 19 L 28.527344 29 L 17.582031 29 L 19.472656 19 z" fill="#181818" />
</svg>