<svg xmlns="http://www.w3.org/2000/svg" viewBox="0 0 48 48" width="24px" height="24px">
  <path d="M 14.5 4 C 11.480226 4 9 6.4802259 9 9.5 L 9 23.535156 L 9 37.5 C 9 40.519774 11.480226 43 14.5 43 L 33.5 43 C 36.519774 43 39 40.519774 39 37.5 L 39 23.662109 A 1.50015 1.50015 0 0 0 39 23.298828 L 39 9.5 C 39 6.4802259 36.519774 4 33.5 4 L 14.5 4 z M 14.5 7 L 18 7 L 18 13 L 12 13 L 12 9.5 C 12 8.1017741 13.101774 7 14.5 7 z M 21 7 L 27 7 L 27 13 L 21 13 L 21 7 z M 30 7 L 33.5 7 C 34.898226 7 36 8.1017741 36 9.5 L 36 13 L 30 13 L 30 7 z M 12 16 L 18 16 L 18 22 L 12 22 L 12 16 z M 21 16 L 27 16 L 27 22 L 21 22 L 21 16 z M 30 16 L 36 16 L 36 22 L 30 22 L 30 16 z M 17.808594 25 L 34.697266 25 L 32.558594 28.207031 C 31.617539 29.618261 29.826731 30.150429 28.267578 29.482422 L 17.808594 25 z M 12 25.775391 L 27.085938 32.240234 C 29.956785 33.470227 33.321742 32.471817 35.054688 29.873047 A 1.50015 1.50015 0 0 0 35.054688 29.871094 L 36 28.453125 L 36 37.5 C 36 38.898226 34.898226 40 33.5 40 L 14.5 40 C 13.101774 40 12 38.898226 12 37.5 L 12 25.775391 z" fill="#181818" />
</svg>