<svg xmlns="http://www.w3.org/2000/svg" viewBox="0 0 48 48" width="24px" height="24px">
  <path d="M 20.5 4 C 18.203405 4 16.305701 5.7666235 16.050781 8 L 12.5 8 C 10.032499 8 8 10.032499 8 12.5 L 8 39.5 C 8 41.967501 10.032499 44 12.5 44 L 35.5 44 C 37.967501 44 40 41.967501 40 39.5 L 40 12.5 C 40 10.032499 37.967501 8 35.5 8 L 31.949219 8 C 31.694299 5.7666235 29.796595 4 27.5 4 L 20.5 4 z M 20.5 7 L 27.5 7 C 28.346499 7 29 7.6535009 29 8.5 C 29 9.3464991 28.346499 10 27.5 10 L 20.5 10 C 19.653501 10 19 9.3464991 19 8.5 C 19 7.6535009 19.653501 7 20.5 7 z M 12.5 11 L 16.769531 11 C 17.581237 12.2019 18.954719 13 20.5 13 L 27.5 13 C 29.045281 13 30.418763 12.2019 31.230469 11 L 35.5 11 C 36.346499 11 37 11.653501 37 12.5 L 37 39.5 C 37 40.346499 36.346499 41 35.5 41 L 12.5 41 C 11.653501 41 11 40.346499 11 39.5 L 11 12.5 C 11 11.653501 11.653501 11 12.5 11 z M 16.5 20 A 1.5 1.5 0 0 0 16.5 23 A 1.5 1.5 0 0 0 16.5 20 z M 22.5 20 A 1.50015 1.50015 0 1 0 22.5 23 L 31.5 23 A 1.50015 1.50015 0 1 0 31.5 20 L 22.5 20 z M 16.5 26 A 1.5 1.5 0 0 0 16.5 29 A 1.5 1.5 0 0 0 16.5 26 z M 22.5 26 A 1.50015 1.50015 0 1 0 22.5 29 L 31.5 29 A 1.50015 1.50015 0 1 0 31.5 26 L 22.5 26 z M 16.5 32 A 1.5 1.5 0 0 0 16.5 35 A 1.5 1.5 0 0 0 16.5 32 z M 22.5 32 A 1.50015 1.50015 0 1 0 22.5 35 L 31.5 35 A 1.50015 1.50015 0 1 0 31.5 32 L 22.5 32 z" fill="#181818" />
</svg>