<svg xmlns="http://www.w3.org/2000/svg" viewBox="0 0 48 48" width="24px" height="24px">
  <path d="M 12.5 6 C 8.9280619 6 6 8.9280619 6 12.5 L 6 35.5 C 6 39.071938 8.9280619 42 12.5 42 L 35.5 42 C 39.071938 42 42 39.071938 42 35.5 L 42 12.5 C 42 8.9280619 39.071938 6 35.5 6 L 12.5 6 z M 12.5 9 L 35.5 9 C 37.450062 9 39 10.549938 39 12.5 L 39 14 L 9 14 L 9 12.5 C 9 10.549938 10.549938 9 12.5 9 z M 9 17 L 39 17 L 39 35.5 C 39 37.450062 37.450062 39 35.5 39 L 12.5 39 C 10.549938 39 9 37.450062 9 35.5 L 9 17 z M 17.484375 21.984375 A 1.50015 1.50015 0 0 0 16.439453 24.560547 L 19.378906 27.5 L 16.439453 30.439453 A 1.50015 1.50015 0 1 0 18.560547 32.560547 L 22.560547 28.560547 A 1.50015 1.50015 0 0 0 22.560547 26.439453 L 18.560547 22.439453 A 1.50015 1.50015 0 0 0 17.484375 21.984375 z M 25.5 30 A 1.50015 1.50015 0 1 0 25.5 33 L 31.5 33 A 1.50015 1.50015 0 1 0 31.5 30 L 25.5 30 z" fill="#181818" />
</svg>