<svg xmlns="http://www.w3.org/2000/svg" viewBox="0 0 48 48" width="24px" height="24px">
  <path d="M 18.5 5 C 15.480226 5 13 7.4802259 13 10.5 L 13 32.5 C 13 35.519774 15.480226 38 18.5 38 L 34.5 38 C 37.519774 38 40 35.519774 40 32.5 L 40 10.5 C 40 7.4802259 37.519774 5 34.5 5 L 18.5 5 z M 18.5 8 L 34.5 8 C 35.898226 8 37 9.1017741 37 10.5 L 37 32.5 C 37 33.898226 35.898226 35 34.5 35 L 18.5 35 C 17.101774 35 16 33.898226 16 32.5 L 16 10.5 C 16 9.1017741 17.101774 8 18.5 8 z M 11 10 L 9.78125 10.8125 C 8.66825 11.5545 8 12.803625 8 14.140625 L 8 33.5 C 8 38.747 12.253 43 17.5 43 L 30.859375 43 C 32.197375 43 33.4465 42.33175 34.1875 41.21875 L 35 40 L 17.5 40 C 13.91 40 11 37.09 11 33.5 L 11 10 z" fill="#181818" />
</svg>