<svg xmlns="http://www.w3.org/2000/svg" viewBox="0 0 48 48" width="24px" height="24px">
  <path d="M 13.5 4 C 10.480226 4 8 6.4802259 8 9.5 L 8 38.5 C 8 41.519774 10.480226 44 13.5 44 L 34.5 44 C 37.519774 44 40 41.519774 40 38.5 L 40 9.5 C 40 6.4802259 37.519774 4 34.5 4 L 13.5 4 z M 13.5 7 L 34.5 7 C 35.898226 7 37 8.1017741 37 9.5 L 37 38.5 C 37 39.898226 35.898226 41 34.5 41 L 13.5 41 C 12.101774 41 11 39.898226 11 38.5 L 11 9.5 C 11 8.1017741 12.101774 7 13.5 7 z M 14.5 9 A 1.5 1.5 0 0 0 14.5 12 A 1.5 1.5 0 0 0 14.5 9 z M 33.5 9 A 1.5 1.5 0 0 0 33.5 12 A 1.5 1.5 0 0 0 33.5 9 z M 24 12 C 18.486 12 14 16.486 14 22 C 14 24.216566 14.739262 26.254842 15.966797 27.912109 L 14.439453 29.439453 A 1.50015 1.50015 0 1 0 16.560547 31.560547 L 25.060547 23.060547 A 1.50015 1.50015 0 0 0 23.970703 20.486328 A 1.50015 1.50015 0 0 0 22.939453 20.939453 L 18.119141 25.759766 C 17.419277 24.67213 17 23.387372 17 22 C 17 18.14 20.141 15 24 15 C 27.859 15 31 18.14 31 22 C 31 25.86 27.859 29 24 29 C 23.365 29 22.752016 28.907047 22.166016 28.748047 L 19.835938 31.078125 C 21.105937 31.664125 22.512 32 24 32 C 29.514 32 34 27.514 34 22 C 34 16.486 29.514 12 24 12 z M 14.5 36 A 1.5 1.5 0 0 0 14.5 39 A 1.5 1.5 0 0 0 14.5 36 z M 33.5 36 A 1.5 1.5 0 0 0 33.5 39 A 1.5 1.5 0 0 0 33.5 36 z" fill="#181818" />
</svg>