<?xml version="1.0" encoding="utf-8"?>
<!-- Generator: Adobe Illustrator 23.0.5, SVG Export Plug-In . SVG Version: 6.00 Build 0)  -->
<svg version="1.1" id="Layer_1" xmlns="http://www.w3.org/2000/svg" xmlns:xlink="http://www.w3.org/1999/xlink" x="0px" y="0px"
	 viewBox="0 0 24 24" style="enable-background:new 0 0 24 24;" xml:space="preserve">
<g>
	<g>
		<path d="M2.33,11.16c-0.26,0-0.48-0.09-0.65-0.28C1.5,10.7,1.41,10.47,1.41,10.2c0-0.28,0.09-0.52,0.27-0.69
			c0.18-0.18,0.4-0.27,0.67-0.27c0.27,0,0.49,0.09,0.67,0.27s0.26,0.41,0.26,0.69c0,0.28-0.09,0.52-0.26,0.7S2.61,11.16,2.33,11.16z
			"/>
		<path d="M10.93,11.03H9.3L6.33,6.44C6.25,6.3,6.18,6.18,6.12,6.08c-0.06-0.1-0.1-0.19-0.13-0.26H5.97
			c0.01,0.13,0.01,0.29,0.02,0.49c0,0.2,0,0.44,0,0.71v4.01H4.46V3.59H6.2l2.86,4.45c0.06,0.1,0.12,0.2,0.18,0.3s0.11,0.2,0.16,0.3
			h0.1c-0.06-0.09-0.09-0.22-0.1-0.39c0-0.17-0.01-0.38-0.01-0.64V3.59h1.53V11.03z"/>
		<path d="M16.8,11.03h-4.32V3.59h4.15v1.39H14.1V6.6h2.35v1.38H14.1v1.66h2.7V11.03z"/>
		<path d="M22.73,4.96H20.8v6.08h-1.63V4.96h-1.93V3.59h5.48V4.96z"/>
	</g>
</g>
<g>
	<g>
		<path d="M7.2,14.51H5.94v3.65H5.19v-3.65H3.93v-0.6H7.2V14.51z"/>
		<path d="M9.76,18.23c-0.64,0-1.17-0.2-1.57-0.59c-0.41-0.4-0.61-0.91-0.61-1.55c0-0.68,0.21-1.22,0.62-1.63
			c0.42-0.41,0.96-0.62,1.63-0.62c0.63,0,1.15,0.2,1.54,0.59c0.39,0.39,0.59,0.92,0.59,1.56c0,0.67-0.2,1.21-0.61,1.62
			S10.42,18.23,9.76,18.23z M9.77,17.6c0.42,0,0.77-0.14,1.02-0.42c0.26-0.28,0.39-0.66,0.39-1.13c0-0.49-0.13-0.87-0.38-1.16
			c-0.25-0.28-0.58-0.43-1-0.43c-0.43,0-0.78,0.14-1.04,0.43c-0.26,0.29-0.4,0.67-0.4,1.14c0,0.47,0.13,0.85,0.39,1.13
			C9.02,17.46,9.36,17.6,9.77,17.6z"/>
		<path d="M14.62,18.23c-0.64,0-1.17-0.2-1.57-0.59c-0.4-0.4-0.61-0.91-0.61-1.55c0-0.68,0.21-1.22,0.62-1.63
			c0.42-0.41,0.96-0.62,1.63-0.62c0.63,0,1.15,0.2,1.54,0.59c0.39,0.39,0.59,0.92,0.59,1.56c0,0.67-0.21,1.21-0.61,1.62
			S15.27,18.23,14.62,18.23z M14.63,17.6c0.43,0,0.77-0.14,1.02-0.42c0.26-0.28,0.39-0.66,0.39-1.13c0-0.49-0.13-0.87-0.38-1.16
			c-0.25-0.28-0.58-0.43-1-0.43c-0.43,0-0.78,0.14-1.04,0.43c-0.26,0.29-0.39,0.67-0.39,1.14c0,0.47,0.13,0.85,0.39,1.13
			C13.88,17.46,14.21,17.6,14.63,17.6z"/>
		<path d="M20.09,18.16h-2.5v-4.25h0.75v3.64h1.75V18.16z"/>
	</g>
</g>
</svg>
