<svg xmlns="http://www.w3.org/2000/svg" viewBox="0 0 48 48" width="24px" height="24px">
  <path d="M 23.976562 5.9785156 A 1.50015 1.50015 0 0 0 22.5 7.5 L 22.5 28.878906 L 19.060547 25.439453 A 1.50015 1.50015 0 0 0 17.984375 24.984375 A 1.50015 1.50015 0 0 0 16.939453 27.560547 L 22.939453 33.560547 A 1.50015 1.50015 0 0 0 25.060547 33.560547 L 31.060547 27.560547 A 1.50015 1.50015 0 1 0 28.939453 25.439453 L 25.5 28.878906 L 25.5 7.5 A 1.50015 1.50015 0 0 0 23.976562 5.9785156 z M 7.4765625 30.978516 A 1.50015 1.50015 0 0 0 6 32.5 L 6 36.5 C 6 39.519774 8.4802259 42 11.5 42 L 36.5 42 C 39.519774 42 42 39.519774 42 36.5 L 42 32.5 A 1.50015 1.50015 0 1 0 39 32.5 L 39 36.5 C 39 37.898226 37.898226 39 36.5 39 L 11.5 39 C 10.101774 39 9 37.898226 9 36.5 L 9 32.5 A 1.50015 1.50015 0 0 0 7.4765625 30.978516 z" fill="#181818" />
</svg>