<svg xmlns="http://www.w3.org/2000/svg" viewBox="0 0 48 48" width="24px" height="24px">
  <path d="M 16.5 5 A 1.50015 1.50015 0 1 0 16.5 8 L 17 8 L 17 19.798828 C 17 20.71391 16.720059 21.607717 16.199219 22.359375 L 6.7988281 35.9375 A 1.50015 1.50015 0 0 0 6.7988281 35.939453 C 5.6324893 37.625282 5.7489967 39.960298 7.1777344 41.535156 C 8.1104251 42.564215 9.4152256 43 10.65625 43 L 37.34375 43 C 38.584774 43 39.889575 42.564215 40.822266 41.535156 C 42.251003 39.960298 42.367511 37.625329 41.201172 35.939453 A 1.50015 1.50015 0 0 0 41.201172 35.9375 L 31.800781 22.359375 C 31.279941 21.607717 31 20.71391 31 19.798828 L 31 8 L 31.5 8 A 1.50015 1.50015 0 1 0 31.5 5 L 29.5 5 L 18.5 5 L 16.5 5 z M 20 8 L 28 8 L 28 16 L 20 16 L 20 8 z M 20 19 L 28 19 L 28 19.798828 C 28 21.323746 28.464824 22.814018 29.333984 24.068359 L 38.734375 37.646484 C 39.124878 38.212416 39.108339 38.960926 38.601562 39.519531 A 1.50015 1.50015 0 0 0 38.599609 39.521484 C 38.342424 39.805474 37.87422 40 37.34375 40 L 10.65625 40 C 10.12578 40 9.6576234 39.805521 9.4003906 39.521484 A 1.50015 1.50015 0 0 0 9.3984375 39.519531 C 8.8916584 38.960973 8.8751219 38.212416 9.265625 37.646484 L 9.265625 37.644531 L 18.666016 24.068359 C 19.535176 22.814018 20 21.323746 20 19.798828 L 20 19 z M 21 26 A 2 2 0 0 0 21 30 A 2 2 0 0 0 21 26 z M 29.5 32 A 2.5 2.5 0 0 0 29.5 37 A 2.5 2.5 0 0 0 29.5 32 z" fill="#181818" />
</svg>