<svg xmlns="http://www.w3.org/2000/svg" viewBox="0 0 50 50" width="24px" height="24px">
  <path d="M 25 2 C 12.309295 2 2 12.309295 2 25 C 2 37.690705 12.309295 48 25 48 C 37.690705 48 48 37.690705 48 25 C 48 12.309295 37.690705 2 25 2 z M 25 4 C 36.609824 4 46 13.390176 46 25 C 46 36.609824 36.609824 46 25 46 C 13.390176 46 4 36.609824 4 25 C 4 13.390176 13.390176 4 25 4 z M 11.599609 13 C 10.715609 13 10 13.715609 10 14.599609 L 10 20.400391 C 10 21.284391 10.716609 22 11.599609 22 L 15.5 22 L 15.5 20 L 12.599609 20 C 12.268609 20 12 19.731391 12 19.400391 L 12 15.599609 C 12 15.268609 12.268609 15 12.599609 15 L 16.400391 15 C 16.731391 15 17 15.268609 17 15.599609 L 17 23.400391 C 17 23.731391 16.731391 24 16.400391 24 L 10 24 L 10 26 L 17.400391 26 C 18.284391 26 19 25.284391 19 24.400391 L 19 14.599609 C 19 13.715609 18.283391 13 17.400391 13 L 11.599609 13 z M 22.099609 13 C 21.217609 13 20.5 13.717609 20.5 14.599609 L 20.5 20.400391 C 20.5 21.282391 21.217609 22 22.099609 22 L 27.900391 22 C 28.782391 22 29.5 21.282391 29.5 20.400391 L 29.5 14.599609 C 29.5 13.717609 28.782391 13 27.900391 13 L 22.099609 13 z M 32.599609 13 C 31.715609 13 31 13.715609 31 14.599609 L 31 20.400391 C 31 21.284391 31.716609 22 32.599609 22 L 36.5 22 L 36.5 20 L 33.599609 20 C 33.268609 20 33 19.731391 33 19.400391 L 33 15.599609 C 33 15.268609 33.268609 15 33.599609 15 L 37.400391 15 C 37.731391 15 38 15.268609 38 15.599609 L 38 23.400391 C 38 23.731391 37.731391 24 37.400391 24 L 31 24 L 31 26 L 38.400391 26 C 39.284391 26 40 25.284391 40 24.400391 L 40 14.599609 C 40 13.715609 39.283391 13 38.400391 13 L 32.599609 13 z M 23.099609 15 L 26.900391 15 C 27.231391 15 27.5 15.268609 27.5 15.599609 L 27.5 19.400391 C 27.5 19.731391 27.231391 20 26.900391 20 L 23.099609 20 C 22.768609 20 22.5 19.731391 22.5 19.400391 L 22.5 15.599609 C 22.5 15.268609 22.768609 15 23.099609 15 z M 11.599609 28 C 10.715609 28 10 28.716609 10 29.599609 L 10 35.400391 C 10 36.284391 10.716609 37 11.599609 37 L 17.5 37 L 17.5 35 L 12.599609 35 C 12.268609 35 12 34.731391 12 34.400391 L 12 30.599609 C 12 30.268609 12.268609 30 12.599609 30 L 17.5 30 L 17.5 28 L 11.599609 28 z M 20.599609 28 C 19.717609 28 19 28.717609 19 29.599609 L 19 35.400391 C 19 36.282391 19.717609 37 20.599609 37 L 26.400391 37 C 27.282391 37 28 36.282391 28 35.400391 L 28 29.599609 C 28 28.717609 27.282391 28 26.400391 28 L 20.599609 28 z M 31.099609 28 C 30.216609 28 29.5 28.715609 29.5 29.599609 L 29.5 37 L 31.5 37 L 31.5 30.599609 C 31.5 30.268609 31.768609 30 32.099609 30 L 33.75 30 L 33.75 37 L 35.75 37 L 35.75 30.599609 C 35.75 30.268609 36.018609 30 36.349609 30 L 38 30 L 38 37 L 40 37 L 40 28 L 31.099609 28 z M 21.599609 30 L 25.400391 30 C 25.731391 30 26 30.268609 26 30.599609 L 26 34.400391 C 26 34.731391 25.731391 35 25.400391 35 L 21.599609 35 C 21.268609 35 21 34.731391 21 34.400391 L 21 30.599609 C 21 30.268609 21.268609 30 21.599609 30 z" fill="#181818" />
</svg>