<svg xmlns="http://www.w3.org/2000/svg" viewBox="0 0 48 48" width="24px" height="24px">
  <path d="M 24 4 C 12.972066 4 4 12.972074 4 24 C 4 35.027926 12.972066 44 24 44 C 35.027934 44 44 35.027926 44 24 C 44 12.972074 35.027934 4 24 4 z M 24 7 C 33.406615 7 41 14.593391 41 24 C 41 33.406609 33.406615 41 24 41 C 14.593385 41 7 33.406609 7 24 C 7 14.593391 14.593385 7 24 7 z M 24 13 C 20.704135 13 18 15.704135 18 19 L 18 19.5 A 1.50015 1.50015 0 1 0 21 19.5 L 21 19 C 21 17.325865 22.325865 16 24 16 C 25.674135 16 27 17.325865 27 19 C 27 21.340909 26.39136 21.634239 25.324219 22.472656 C 24.790648 22.891865 24.091764 23.375202 23.494141 24.189453 C 22.896517 25.003704 22.5 26.138742 22.5 27.5 A 1.50015 1.50015 0 1 0 25.5 27.5 C 25.5 26.646758 25.665983 26.300186 25.912109 25.964844 C 26.158236 25.629501 26.584352 25.296698 27.175781 24.832031 C 28.35864 23.902698 30 22.159091 30 19 C 30 15.704135 27.295865 13 24 13 z M 24 32 A 2 2 0 0 0 24 36 A 2 2 0 0 0 24 32 z" fill="#181818" />
</svg>