<svg xmlns="http://www.w3.org/2000/svg" viewBox="0 0 48 48" width="24px" height="24px">
  <path d="M 24 4 C 17.46415 4 11.651148 7.1491633 8 12.011719 L 8 8.5 A 1.50015 1.50015 0 0 0 6.4765625 6.9785156 A 1.50015 1.50015 0 0 0 5 8.5 L 5 15.5 A 1.50015 1.50015 0 0 0 6.5 17 L 13.5 17 A 1.50015 1.50015 0 1 0 13.5 14 L 10.25 14 C 13.339079 9.7581979 18.339176 7 24 7 C 33.406292 7 41 14.593708 41 24 C 41 33.406292 33.406292 41 24 41 C 14.593708 41 7 33.406292 7 24 A 1.50015 1.50015 0 1 0 4 24 C 4 35.027708 12.972292 44 24 44 C 35.027708 44 44 35.027708 44 24 C 44 12.972292 35.027708 4 24 4 z M 23.476562 12.978516 A 1.50015 1.50015 0 0 0 22 14.5 L 22 26.5 A 1.50015 1.50015 0 0 0 23.5 28 L 31.5 28 A 1.50015 1.50015 0 1 0 31.5 25 L 25 25 L 25 14.5 A 1.50015 1.50015 0 0 0 23.476562 12.978516 z" fill="#181818" />
</svg>