<svg xmlns="http://www.w3.org/2000/svg" viewBox="0 0 48 48" width="24px" height="24px">
  <path d="M 10.486328 8.0019531 C 6.9143902 8.0019531 3.9863281 10.930015 3.9863281 14.501953 L 3.9863281 33.501953 C 3.9863281 37.073891 6.9143902 40.001953 10.486328 40.001953 L 27.060547 40.001953 A 1.50015 1.50015 0 0 0 27.0625 40.001953 C 29.006699 40.000753 30.875103 39.243426 32.273438 37.892578 A 1.50015 1.50015 0 0 0 32.275391 37.892578 L 42.183594 28.314453 C 44.609292 25.969611 44.609292 22.030389 42.183594 19.685547 L 32.275391 10.109375 C 30.876975 8.7571988 29.006675 8.0019531 27.0625 8.0019531 L 10.486328 8.0019531 z M 10.486328 11.001953 L 27.0625 11.001953 C 28.230325 11.001953 29.349868 11.453801 30.189453 12.265625 L 40.097656 21.84375 C 41.331958 23.036908 41.331958 24.965045 40.097656 26.158203 L 30.189453 35.736328 L 30.189453 35.734375 C 29.349787 36.545527 28.228348 37.001203 27.060547 37.001953 L 10.486328 37.001953 C 8.5362663 37.001953 6.9863281 35.452015 6.9863281 33.501953 L 6.9863281 14.501953 C 6.9863281 12.551891 8.5362663 11.001953 10.486328 11.001953 z M 33 22 A 2 2 0 0 0 33 26 A 2 2 0 0 0 33 22 z" fill="#181818" />
</svg>