<svg xmlns="http://www.w3.org/2000/svg" viewBox="0 0 48 48" width="24px" height="24px">
  <path d="M 23.5 5 C 17.16639 5 12 10.16639 12 16.5 C 12 18.130861 12.341389 19.689962 12.957031 21.099609 A 1.50015 1.50015 0 1 0 15.707031 19.900391 C 15.252673 18.860038 15 17.713139 15 16.5 C 15 11.78761 18.78761 8 23.5 8 C 28.21239 8 32 11.78761 32 16.5 C 32 17.08427 31.94138 17.652314 31.830078 18.201172 A 1.50015 1.50015 0 1 0 34.769531 18.798828 C 34.92023 18.055686 35 17.28573 35 16.5 C 35 10.16639 29.83361 5 23.5 5 z M 23.5 12 C 21.032499 12 19 14.032499 19 16.5 L 19 25.759766 L 18.138672 25.404297 C 14.483804 23.900444 10.334734 26.436466 10.005859 30.375 A 1.50015 1.50015 0 0 0 10.693359 31.765625 L 19.957031 37.667969 C 20.601036 38.078718 21.151526 38.620029 21.576172 39.255859 L 23.033203 41.441406 A 1.50015 1.50015 0 0 0 23.035156 41.441406 C 23.803886 42.591886 25.189849 43.186167 26.554688 42.945312 L 31.882812 42.005859 C 33.603893 41.703285 34.998876 40.422039 35.449219 38.734375 A 1.50015 1.50015 0 0 0 35.451172 38.726562 L 37.832031 29.576172 C 38.653863 26.49462 36.64066 23.318721 33.501953 22.748047 L 28 21.748047 L 28 16.5 C 28 14.032499 25.967501 12 23.5 12 z M 23.5 15 C 24.346499 15 25 15.653501 25 16.5 L 25 23 A 1.50015 1.50015 0 0 0 26.232422 24.476562 L 32.964844 25.699219 C 34.424137 25.964545 35.315668 27.370273 34.933594 28.802734 A 1.50015 1.50015 0 0 0 34.929688 28.8125 L 32.550781 37.960938 C 32.399124 38.529274 31.940201 38.949356 31.363281 39.050781 A 1.50015 1.50015 0 0 0 31.363281 39.052734 L 26.033203 39.992188 C 25.834042 40.027338 25.642567 39.944908 25.529297 39.775391 L 24.072266 37.591797 C 23.417016 36.610136 22.565912 35.77367 21.570312 35.138672 A 1.50015 1.50015 0 0 0 21.568359 35.138672 L 13.251953 29.835938 C 13.814585 28.352335 15.413607 27.528548 16.996094 28.179688 L 19.929688 29.386719 A 1.50015 1.50015 0 0 0 22 28 L 22 16.5 C 22 15.653501 22.653501 15 23.5 15 z" fill="#181818" />
</svg>