<svg xmlns="http://www.w3.org/2000/svg" viewBox="0 0 48 48" width="24px" height="24px">
  <path d="M 34 4.0019531 C 33.1465 4.0019531 32.293734 4.1054531 31.427734 4.3144531 C 30.805734 4.4634531 30.345203 4.9929063 30.283203 5.6289062 L 30.242188 6.0507812 C 30.195187 6.5317812 29.919 6.9630781 29.5 7.2050781 C 29.081 7.4460781 28.568859 7.4734844 28.130859 7.2714844 L 27.742188 7.0957031 C 27.163187 6.8327031 26.473203 6.9637344 26.033203 7.4277344 C 24.835203 8.6877344 23.941125 10.228813 23.453125 11.882812 C 23.271125 12.495812 23.500484 13.155344 24.021484 13.527344 L 24.371094 13.777344 C 24.764094 14.060344 25 14.517 25 15 C 25 15.483 24.765047 15.938703 24.373047 16.220703 L 24.021484 16.472656 C 23.989484 16.495656 23.969453 16.527734 23.939453 16.552734 L 24.011719 17.027344 C 24.058719 17.333344 24.230047 17.587188 24.498047 17.742188 C 24.653047 17.831187 24.826047 17.878906 24.998047 17.878906 C 25.120047 17.878906 25.242281 17.854641 25.363281 17.806641 L 27.083984 17.134766 C 27.490984 16.976766 27.917516 16.896484 28.353516 16.896484 C 29.397516 16.896484 30.379922 17.357203 31.044922 18.158203 C 32.275922 19.638203 33.241109 21.305234 33.912109 23.115234 C 34.269109 24.079234 34.171031 25.118422 33.707031 25.982422 C 33.805031 25.985422 33.904 26 34 26 C 34.842 26 35.708219 25.894547 36.574219 25.685547 C 37.195219 25.536547 37.654797 25.009047 37.716797 24.373047 L 37.757812 23.949219 C 37.804812 23.468219 38.081 23.036922 38.5 22.794922 C 38.92 22.554922 39.432141 22.528516 39.869141 22.728516 L 40.257812 22.90625 C 40.836813 23.17125 41.527797 23.039219 41.966797 22.574219 C 43.164797 21.314219 44.058875 19.773141 44.546875 18.119141 C 44.728875 17.504141 44.499516 16.843656 43.978516 16.472656 L 43.628906 16.222656 C 43.235906 15.939656 43 15.483 43 15 C 43 14.517 43.234953 14.061297 43.626953 13.779297 L 43.978516 13.527344 C 44.499516 13.156344 44.728875 12.496813 44.546875 11.882812 C 44.058875 10.228813 43.164797 8.6877344 41.966797 7.4277344 C 41.526797 6.9627344 40.835813 6.8307031 40.257812 7.0957031 L 39.871094 7.2714844 C 39.429094 7.4714844 38.918 7.4440781 38.5 7.2050781 C 38.081 6.9630781 37.804813 6.5327344 37.757812 6.0527344 L 37.716797 5.6289062 C 37.654797 4.9919063 37.194266 4.4634531 36.572266 4.3144531 C 35.706266 4.1054531 34.8535 4.0019531 34 4.0019531 z M 34 12 C 35.657 12 37 13.343 37 15 C 37 16.657 35.657 18 34 18 C 32.343 18 31 16.657 31 15 C 31 13.343 32.343 12 34 12 z M 17.902344 13.996094 C 17.094719 13.998594 16.31975 14.080922 15.46875 14.232422 C 14.83575 14.343422 14.343094 14.846422 14.246094 15.482422 L 13.964844 17.328125 C 13.827844 18.233125 13.294 19.015609 12.5 19.474609 C 11.708 19.932609 10.763203 20.006875 9.9082031 19.671875 L 8.1855469 18.998047 C 7.5845469 18.765047 6.8993281 18.938547 6.4863281 19.435547 C 5.4023281 20.739547 4.5519375 22.2115 3.9609375 23.8125 C 3.7369375 24.4185 3.9266406 25.099906 4.4316406 25.503906 L 5.875 26.658203 C 6.59 27.229203 7 28.083 7 29 C 7 29.917 6.59 30.770797 5.875 31.341797 L 4.4316406 32.496094 C 3.9266406 32.900094 3.7379375 33.5815 3.9609375 34.1875 C 4.5529375 35.7885 5.4023281 37.260453 6.4863281 38.564453 C 6.8993281 39.061453 7.5865469 39.237953 8.1855469 39.001953 L 9.9082031 38.328125 C 10.762203 37.994125 11.708 38.068391 12.5 38.525391 C 13.294 38.984391 13.828797 39.765875 13.966797 40.671875 L 14.246094 42.517578 C 14.343094 43.153578 14.83575 43.656578 15.46875 43.767578 C 16.34575 43.924578 17.173 44 18 44 C 18.827 44 19.65425 43.925531 20.53125 43.769531 C 21.16425 43.658531 21.656906 43.153578 21.753906 42.517578 L 22.033203 40.671875 L 22.035156 40.671875 C 22.172156 39.766875 22.706 38.984391 23.5 38.525391 C 24.294 38.068391 25.238797 37.996078 26.091797 38.330078 L 27.814453 39.003906 C 28.415453 39.237906 29.100672 39.061453 29.513672 38.564453 C 30.597672 37.260453 31.448063 35.790453 32.039062 34.189453 C 32.263062 33.582453 32.073359 32.900094 31.568359 32.496094 L 30.125 31.341797 C 29.41 30.770797 29 29.917 29 29 C 29 28.083 29.410953 27.22825 30.126953 26.65625 L 31.568359 25.503906 C 32.073359 25.100906 32.261109 24.416547 32.037109 23.810547 C 31.445109 22.214547 30.594812 20.7445 29.507812 19.4375 C 29.094812 18.9405 28.408594 18.765047 27.808594 18.998047 L 26.091797 19.669922 C 25.238797 20.004922 24.294 19.932609 23.5 19.474609 C 22.706 19.015609 22.171203 18.234125 22.033203 17.328125 L 21.753906 15.490234 C 21.656906 14.851234 21.161391 14.347281 20.525391 14.238281 C 19.549891 14.070781 18.709969 13.993594 17.902344 13.996094 z M 18 24 C 20.761 24 23 26.239 23 29 C 23 31.761 20.761 34 18 34 C 15.239 34 13 31.761 13 29 C 13 26.239 15.239 24 18 24 z" fill="#181818" />
</svg>