<svg xmlns="http://www.w3.org/2000/svg" viewBox="0 0 48 48" width="24px" height="24px">
  <path d="M 34 4.0019531 C 33.1465 4.0019531 32.293734 4.1054531 31.427734 4.3144531 C 30.805734 4.4634531 30.345203 4.9929063 30.283203 5.6289062 L 30.242188 6.0507812 C 30.195187 6.5317812 29.919 6.9630781 29.5 7.2050781 C 29.081 7.4460781 28.568859 7.4734844 28.130859 7.2714844 L 27.742188 7.0957031 C 27.163187 6.8327031 26.473203 6.9637344 26.033203 7.4277344 C 24.835203 8.6877344 23.941125 10.228813 23.453125 11.882812 C 23.271125 12.495812 23.500484 13.155344 24.021484 13.527344 L 24.371094 13.777344 C 24.764094 14.060344 25 14.517 25 15 C 25 15.256 24.930547 15.502703 24.810547 15.720703 L 24.998047 16.876953 L 26.441406 16.330078 C 26.837406 16.181078 27.251828 16.105469 27.673828 16.105469 C 27.728828 16.105469 27.782891 16.120047 27.837891 16.123047 C 27.933891 15.758047 28 15.385 28 15 C 28 13.794 27.512922 12.644641 26.669922 11.806641 C 26.909922 11.257641 27.214266 10.735 27.572266 10.25 C 28.718266 10.561 29.956 10.407688 31 9.8046875 C 32.044 9.2016875 32.797562 8.2036875 33.101562 7.0546875 C 33.710563 6.9826875 34.290391 6.9826875 34.900391 7.0546875 C 35.203391 8.2036875 35.955 9.2016875 37 9.8046875 C 38.043 10.408687 39.279734 10.561 40.427734 10.25 C 40.785734 10.734 41.090078 11.257641 41.330078 11.806641 C 40.487078 12.645641 40 13.794 40 15 C 40 16.206 40.487078 17.355359 41.330078 18.193359 C 41.090078 18.742359 40.785734 19.265 40.427734 19.75 C 39.281734 19.439 38.044 19.592312 37 20.195312 C 35.955 20.798313 35.202438 21.796313 34.898438 22.945312 C 34.554437 22.986313 34.220766 22.997187 33.884766 22.992188 C 34.055766 23.442187 34.21275 23.895422 34.34375 24.357422 C 34.49575 24.894422 34.509203 25.447609 34.408203 25.974609 C 35.121203 25.946609 35.846219 25.860547 36.574219 25.685547 C 37.195219 25.536547 37.654797 25.007094 37.716797 24.371094 L 37.757812 23.947266 C 37.804812 23.466266 38.081 23.036922 38.5 22.794922 C 38.92 22.554922 39.432141 22.528516 39.869141 22.728516 L 40.257812 22.904297 C 40.836813 23.169297 41.527797 23.037266 41.966797 22.572266 C 43.164797 21.312266 44.058875 19.771187 44.546875 18.117188 C 44.728875 17.503187 44.499516 16.843656 43.978516 16.472656 L 43.628906 16.222656 C 43.235906 15.939656 43 15.483 43 15 C 43 14.517 43.234953 14.061297 43.626953 13.779297 L 43.978516 13.527344 C 44.499516 13.156344 44.728875 12.496813 44.546875 11.882812 C 44.058875 10.228813 43.164797 8.6877344 41.966797 7.4277344 C 41.526797 6.9627344 40.835813 6.8307031 40.257812 7.0957031 L 39.871094 7.2714844 C 39.429094 7.4714844 38.918 7.4440781 38.5 7.2050781 C 38.081 6.9630781 37.804813 6.5327344 37.757812 6.0527344 L 37.716797 5.6289062 C 37.654797 4.9919063 37.194266 4.4634531 36.572266 4.3144531 C 35.706266 4.1054531 34.8535 4.0019531 34 4.0019531 z M 34 11 C 32.791667 11 31.695482 11.507133 31.003906 12.285156 C 30.312331 13.063179 30 14.041667 30 15 C 30 15.958333 30.312331 16.936821 31.003906 17.714844 C 31.695482 18.492867 32.791667 19 34 19 C 35.208333 19 36.304518 18.492867 36.996094 17.714844 C 37.687669 16.936821 38 15.958333 38 15 C 38 14.041667 37.687669 13.063179 36.996094 12.285156 C 36.304518 11.507133 35.208333 11 34 11 z M 18 14 C 16.722281 14 15.497446 14.176085 14.337891 14.466797 A 1.50015 1.50015 0 0 0 13.222656 15.679688 L 12.974609 17.197266 C 12.877133 17.791298 12.520375 18.306875 12 18.607422 C 11.479609 18.907978 10.857215 18.959049 10.292969 18.746094 L 8.8496094 18.199219 A 1.50015 1.50015 0 0 0 7.2421875 18.558594 C 5.5391667 20.313827 4.2656618 22.484198 3.5800781 24.904297 A 1.50015 1.50015 0 0 0 4.0742188 26.474609 L 5.2675781 27.451172 C 5.7317061 27.833367 6 28.399483 6 29 C 6 29.601429 5.7307373 30.167917 5.265625 30.548828 L 4.0722656 31.525391 A 1.50015 1.50015 0 0 0 3.5800781 33.095703 C 4.2665281 35.51494 5.5389397 37.685939 7.2421875 39.441406 A 1.50015 1.50015 0 0 0 8.8476562 39.798828 L 10.292969 39.253906 C 10.855597 39.041345 11.478005 39.091427 12 39.392578 C 12.521198 39.69327 12.875919 40.207764 12.972656 40.800781 L 13.220703 42.318359 A 1.50015 1.50015 0 0 0 14.335938 43.53125 C 15.497015 43.823166 16.722281 44 18 44 C 19.277719 44 20.502554 43.823915 21.662109 43.533203 A 1.50015 1.50015 0 0 0 22.777344 42.320312 L 23.025391 40.802734 C 23.122867 40.208702 23.479625 39.693125 24 39.392578 C 24.520391 39.092022 25.142785 39.040951 25.707031 39.253906 L 27.150391 39.800781 A 1.50015 1.50015 0 0 0 28.757812 39.441406 C 30.460833 37.686173 31.734338 35.515802 32.419922 33.095703 A 1.50015 1.50015 0 0 0 31.925781 31.525391 L 30.732422 30.548828 C 30.268294 30.166633 30 29.600517 30 29 C 30 28.398571 30.269263 27.832083 30.734375 27.451172 L 31.927734 26.474609 A 1.50015 1.50015 0 0 0 32.419922 24.904297 C 31.733351 22.481827 30.452429 20.315385 28.753906 18.5625 A 1.50015 1.50015 0 0 0 27.146484 18.203125 L 25.707031 18.746094 C 25.144403 18.958655 24.520042 18.908573 23.998047 18.607422 C 23.476848 18.30673 23.122128 17.792236 23.025391 17.199219 L 22.773438 15.666016 A 1.50015 1.50015 0 0 0 21.660156 14.453125 C 20.489913 14.158899 19.26277 14 18 14 z M 34 14 C 34.458333 14 34.612149 14.117867 34.753906 14.277344 C 34.895664 14.436821 35 14.708333 35 15 C 35 15.291667 34.895664 15.563179 34.753906 15.722656 C 34.612149 15.882133 34.458333 16 34 16 C 33.541667 16 33.387851 15.882133 33.246094 15.722656 C 33.104336 15.563179 33 15.291667 33 15 C 33 14.708333 33.104336 14.436821 33.246094 14.277344 C 33.387851 14.117867 33.541667 14 34 14 z M 18 17 C 18.688796 17 19.338023 17.135975 19.994141 17.248047 L 20.064453 17.683594 C 20.306155 19.161815 21.201734 20.458032 22.5 21.207031 C 23.798005 21.95588 25.366206 22.082173 26.767578 21.552734 L 27.167969 21.402344 C 28.020482 22.430588 28.69263 23.587748 29.166016 24.859375 L 28.833984 25.130859 A 1.50015 1.50015 0 0 0 28.832031 25.130859 C 27.673193 26.079948 27 27.501429 27 29 C 27 30.498571 27.673508 31.919355 28.830078 32.869141 A 1.50015 1.50015 0 0 0 28.832031 32.871094 L 29.166016 33.144531 C 28.693428 34.417296 28.022475 35.575095 27.171875 36.601562 L 26.767578 36.447266 C 25.365824 35.918221 23.795656 36.045478 22.498047 36.794922 C 21.200422 37.544375 20.306977 38.838438 20.064453 40.316406 A 1.50015 1.50015 0 0 0 20.064453 40.318359 L 19.994141 40.744141 C 19.33533 40.860093 18.681741 41 18 41 C 17.317602 41 16.663301 40.860639 16.003906 40.744141 L 15.933594 40.318359 L 15.933594 40.316406 C 15.69189 38.838232 14.798266 37.541968 13.5 36.792969 C 12.201995 36.04412 10.633794 35.917827 9.2324219 36.447266 L 8.8261719 36.599609 C 7.9758344 35.57295 7.3048363 34.416071 6.8320312 33.142578 L 7.1660156 32.869141 A 1.50015 1.50015 0 0 0 7.1679688 32.869141 C 8.3268596 31.920052 9 30.498571 9 29 C 9 27.501429 8.3264921 26.080645 7.1699219 25.130859 A 1.50015 1.50015 0 0 0 7.1679688 25.128906 L 6.8339844 24.855469 C 7.3065723 23.582704 7.9775252 22.424905 8.828125 21.398438 L 9.2324219 21.552734 C 10.634176 22.081779 12.204344 21.954522 13.501953 21.205078 C 14.799578 20.455625 15.693023 19.161562 15.935547 17.683594 A 1.50015 1.50015 0 0 0 15.935547 17.681641 L 16.005859 17.255859 C 16.664623 17.13986 17.318259 17 18 17 z M 18 23 C 16.125 23 14.528815 23.757133 13.503906 24.910156 C 12.478997 26.063179 12 27.541667 12 29 C 12 30.458333 12.478997 31.936821 13.503906 33.089844 C 14.528815 34.242867 16.125 35 18 35 C 19.875 35 21.471185 34.242867 22.496094 33.089844 C 23.521003 31.936821 24 30.458333 24 29 C 24 27.541667 23.521003 26.063179 22.496094 24.910156 C 21.471185 23.757133 19.875 23 18 23 z M 18 26 C 19.124999 26 19.778816 26.367867 20.253906 26.902344 C 20.728997 27.436821 21 28.208333 21 29 C 21 29.791667 20.728997 30.563179 20.253906 31.097656 C 19.778816 31.632133 19.124999 32 18 32 C 16.875001 32 16.221184 31.632133 15.746094 31.097656 C 15.271003 30.563179 15 29.791667 15 29 C 15 28.208333 15.271003 27.436821 15.746094 26.902344 C 16.221184 26.367867 16.875001 26 18 26 z" fill="#181818" />
</svg>