<svg xmlns="http://www.w3.org/2000/svg" viewBox="0 0 48 48" width="24px" height="24px">
  <path d="M 9.5 6 C 7.0324991 6 5 8.0324991 5 10.5 L 5 37.5 C 5 39.967501 7.0324991 42 9.5 42 L 20.5 42 C 22.967501 42 25 39.967501 25 37.5 L 25 10.5 C 25 8.0324991 22.967501 6 20.5 6 L 9.5 6 z M 25.179688 6 C 25.971688 6.823 26.545359 7.853 26.818359 9 L 38.5 9 C 39.327 9 40 9.673 40 10.5 L 40 29.5 C 40 30.327 39.327 31 38.5 31 L 30.746094 31 A 1.50015 1.50015 0 0 0 30.476562 30.978516 A 1.50015 1.50015 0 0 0 30.257812 31 L 27 31 L 27 34 L 29 34 L 29 39 L 26.818359 39 C 26.545359 40.147 25.971688 41.177 25.179688 42 L 30.253906 42 A 1.50015 1.50015 0 0 0 30.740234 42 L 34.5 42 C 35.329 42 36 41.329 36 40.5 C 36 39.671 35.329 39 34.5 39 L 32 39 L 32 34 L 38.5 34 C 40.981 34 43 31.981 43 29.5 L 43 10.5 C 43 8.019 40.981 6 38.5 6 L 25.179688 6 z M 9.5 9 L 20.5 9 C 21.346499 9 22 9.6535009 22 10.5 L 22 37.5 C 22 38.346499 21.346499 39 20.5 39 L 9.5 39 C 8.6535009 39 8 38.346499 8 37.5 L 8 10.5 C 8 9.6535009 8.6535009 9 9.5 9 z M 11.5 11 A 1.50015 1.50015 0 0 0 10 12.5 L 10 17.253906 A 1.50015 1.50015 0 0 0 10 17.740234 L 10 22.5 A 1.50015 1.50015 0 0 0 11.5 24 L 18.5 24 A 1.50015 1.50015 0 0 0 20 22.5 L 20 17.746094 A 1.50015 1.50015 0 0 0 20 17.259766 L 20 12.5 A 1.50015 1.50015 0 0 0 18.5 11 L 11.5 11 z M 13 14 L 17 14 L 17 16 L 13 16 L 13 14 z M 13 19 L 17 19 L 17 21 L 13 21 L 13 19 z M 15 31 A 2 2 0 0 0 15 35 A 2 2 0 0 0 15 31 z" fill="#181818" />
</svg>