<svg xmlns="http://www.w3.org/2000/svg" viewBox="0 0 48 48" width="24px" height="24px">
  <path d="M 39.283203 8.0292969 C 38.930693 8.0448869 38.574495 8.1033525 38.21875 8.2089844 L 7.2167969 17.423828 C 5.3158518 17.990226 4 19.752902 4 21.738281 L 4 26.261719 C 4 28.247098 5.3158518 30.009774 7.2167969 30.576172 L 12.212891 32.060547 C 11.770628 35.849861 13.955969 39.555282 17.732422 40.671875 C 21.500638 41.784938 25.340174 39.87368 27.035156 36.466797 L 38.216797 39.791016 C 41.06282 40.63757 44 38.448146 44 35.478516 L 44 12.521484 C 44 10.294651 42.348658 8.5059986 40.322266 8.1074219 C 39.984534 8.0409924 39.635713 8.0137069 39.283203 8.0292969 z M 39.441406 11.017578 C 40.288923 10.965275 41 11.608957 41 12.521484 L 41 35.478516 C 41 36.522885 40.072243 37.213461 39.072266 36.916016 L 8.0722656 27.699219 C 7.4307412 27.506791 7 26.931378 7 26.261719 L 7 21.738281 C 7 21.068622 7.4307412 20.493209 8.0722656 20.300781 L 39.072266 11.083984 C 39.197271 11.046866 39.320332 11.02505 39.441406 11.017578 z M 15.083984 32.914062 L 24.164062 35.613281 C 23.003999 37.472235 20.796208 38.44895 18.582031 37.794922 C 16.363095 37.138844 15.040559 35.110628 15.083984 32.914062 z" fill="#181818" />
</svg>