<svg xmlns="http://www.w3.org/2000/svg" viewBox="0 0 32 32" width="96px" height="96px">
  <path d="M 0 10 L 0 21 L 9 21 L 9 23 L 16 23 L 16 21 L 32 21 L 32 10 L 0 10 z M 1.7773438 11.777344 L 8.8886719 11.777344 L 8.890625 11.777344 L 8.890625 19.445312 L 7.1113281 19.445312 L 7.1113281 13.556641 L 5.3339844 13.556641 L 5.3339844 19.445312 L 1.7773438 19.445312 L 1.7773438 11.777344 z M 10.667969 11.777344 L 17.777344 11.777344 L 17.779297 11.777344 L 17.779297 19.443359 L 14.222656 19.443359 L 14.222656 21.222656 L 10.667969 21.222656 L 10.667969 11.777344 z M 19.556641 11.777344 L 30.222656 11.777344 L 30.224609 11.777344 L 30.224609 19.445312 L 28.445312 19.445312 L 28.445312 13.556641 L 26.667969 13.556641 L 26.667969 19.445312 L 24.890625 19.445312 L 24.890625 13.556641 L 23.111328 13.556641 L 23.111328 19.445312 L 19.556641 19.445312 L 19.556641 11.777344 z M 14.222656 13.556641 L 14.222656 17.667969 L 16 17.667969 L 16 13.556641 L 14.222656 13.556641 z" fill="#181818" />
</svg>