<svg xmlns="http://www.w3.org/2000/svg" viewBox="0 0 48 48" width="24px" height="24px">
  <path d="M 8.5 8 C 6.0324991 8 4 10.032499 4 12.5 L 4 36.40625 L 4.015625 36.40625 C 3.9865145 38.276932 5.5083888 40 7.5019531 40 L 36.546875 40 C 38.416875 40 40.10278 38.832994 40.759766 37.082031 L 45.767578 23.75 L 45.767578 23.746094 C 46.62354 21.501657 44.900814 19 42.498047 19 L 42 19 L 42 17.5 C 42 15.032499 39.967501 13 37.5 13 L 24.042969 13 L 19.574219 9.2753906 A 1.50015 1.50015 0 0 0 19.572266 9.2753906 C 18.584102 8.4521105 17.339162 8 16.052734 8 L 8.5 8 z M 8.5 11 L 16.052734 11 C 16.638307 11 17.202555 11.205358 17.652344 11.580078 L 22.539062 15.652344 A 1.50015 1.50015 0 0 0 23.5 16 L 37.5 16 C 38.346499 16 39 16.653501 39 17.5 L 39 19 L 13.453125 19 C 11.583125 19 9.8972196 20.167006 9.2402344 21.917969 L 7 27.882812 L 7 12.5 C 7 11.653501 7.6535009 11 8.5 11 z M 13.453125 22 L 42.498047 22 C 42.897907 22 43.107444 22.305152 42.964844 22.677734 A 1.50015 1.50015 0 0 0 42.960938 22.6875 L 37.951172 36.027344 C 37.730157 36.616381 37.176875 37 36.546875 37 L 7.5019531 37 C 7.1042373 37 6.8935735 36.697099 7.0332031 36.326172 A 1.50015 1.50015 0 0 0 7.0351562 36.324219 L 12.048828 22.972656 C 12.269843 22.383619 12.823125 22 13.453125 22 z" fill="#181818" />
</svg>