<svg xmlns="http://www.w3.org/2000/svg" viewBox="0 0 48 48" width="24px" height="24px" transform="rotate(-90)">
  <path d="M 11.476562 3.9785156 A 1.50015 1.50015 0 0 0 10 5.5 L 10 25.306641 C 8.9608181 25.585619 8.0196926 26.033021 7.3789062 26.753906 C 6.4373308 27.813179 6 29.166667 6 30.5 C 6 31.833333 6.4373308 33.186821 7.3789062 34.246094 C 8.0196926 34.966979 8.9608181 35.414381 10 35.693359 L 10 42.5 A 1.50015 1.50015 0 1 0 13 42.5 L 13 35.693359 C 14.039182 35.414381 14.980307 34.966979 15.621094 34.246094 C 16.562669 33.186821 17 31.833333 17 30.5 C 17 29.166667 16.562669 27.813179 15.621094 26.753906 C 14.980307 26.033021 14.039182 25.585619 13 25.306641 L 13 5.5 A 1.50015 1.50015 0 0 0 11.476562 3.9785156 z M 23.976562 3.9785156 A 1.50015 1.50015 0 0 0 22.5 5.5 L 22.5 10.306641 C 21.460818 10.585619 20.519693 11.033021 19.878906 11.753906 C 18.937331 12.813179 18.5 14.166667 18.5 15.5 C 18.5 16.833333 18.937331 18.186821 19.878906 19.246094 C 20.519693 19.966979 21.460818 20.414381 22.5 20.693359 L 22.5 42.5 A 1.50015 1.50015 0 1 0 25.5 42.5 L 25.5 20.693359 C 26.539182 20.414381 27.480307 19.966979 28.121094 19.246094 C 29.062669 18.186821 29.5 16.833333 29.5 15.5 C 29.5 14.166667 29.062669 12.813179 28.121094 11.753906 C 27.480307 11.033021 26.539182 10.585619 25.5 10.306641 L 25.5 5.5 A 1.50015 1.50015 0 0 0 23.976562 3.9785156 z M 36.476562 3.9785156 A 1.50015 1.50015 0 0 0 35 5.5 L 35 27.306641 C 33.960818 27.585619 33.019693 28.033021 32.378906 28.753906 C 31.437331 29.813179 31 31.166667 31 32.5 C 31 33.833333 31.437331 35.186821 32.378906 36.246094 C 33.019693 36.966979 33.960818 37.414381 35 37.693359 L 35 42.5 A 1.50015 1.50015 0 1 0 38 42.5 L 38 37.693359 C 39.039182 37.414381 39.980307 36.966979 40.621094 36.246094 C 41.562669 35.186821 42 33.833333 42 32.5 C 42 31.166667 41.562669 29.813179 40.621094 28.753906 C 39.980307 28.033021 39.039182 27.585619 38 27.306641 L 38 5.5 A 1.50015 1.50015 0 0 0 36.476562 3.9785156 z M 23.90625 13.017578 A 1.50015 1.50015 0 0 0 24.09375 13.017578 C 24.979944 13.041208 25.503107 13.323319 25.878906 13.746094 C 26.270664 14.186821 26.5 14.833333 26.5 15.5 C 26.5 16.166667 26.270664 16.813179 25.878906 17.253906 C 25.487149 17.694633 24.958333 18 24 18 C 23.041667 18 22.512851 17.694633 22.121094 17.253906 C 21.729336 16.813179 21.5 16.166667 21.5 15.5 C 21.5 14.833333 21.729336 14.186821 22.121094 13.746094 C 22.496893 13.323319 23.020056 13.041205 23.90625 13.017578 z M 11.40625 28.017578 A 1.50015 1.50015 0 0 0 11.59375 28.017578 C 12.479944 28.041208 13.003107 28.323319 13.378906 28.746094 C 13.770664 29.186821 14 29.833333 14 30.5 C 14 31.166667 13.770664 31.813179 13.378906 32.253906 C 13.003107 32.676681 12.479944 32.958795 11.59375 32.982422 A 1.50015 1.50015 0 0 0 11.40625 32.982422 C 10.520056 32.958795 9.9968933 32.676681 9.6210938 32.253906 C 9.2293364 31.813179 9 31.166667 9 30.5 C 9 29.833333 9.2293365 29.186821 9.6210938 28.746094 C 9.9968933 28.323319 10.520056 28.041205 11.40625 28.017578 z M 36.40625 30.017578 A 1.50015 1.50015 0 0 0 36.59375 30.017578 C 37.479944 30.041208 38.003107 30.323319 38.378906 30.746094 C 38.770664 31.186821 39 31.833333 39 32.5 C 39 33.166667 38.770664 33.813179 38.378906 34.253906 C 38.003107 34.676681 37.479944 34.958795 36.59375 34.982422 A 1.50015 1.50015 0 0 0 36.40625 34.982422 C 35.520056 34.958795 34.996893 34.676681 34.621094 34.253906 C 34.229336 33.813179 34 33.166667 34 32.5 C 34 31.833333 34.229336 31.186821 34.621094 30.746094 C 34.996893 30.323319 35.520056 30.041205 36.40625 30.017578 z" fill="#181818" />
</svg>