<?xml version="1.0" encoding="utf-8"?>
<!-- Generator: Adobe Illustrator 23.0.5, SVG Export Plug-In . SVG Version: 6.00 Build 0)  -->
<svg version="1.1" id="Layer_1"
	 xmlns="http://www.w3.org/2000/svg" xmlns:xlink="http://www.w3.org/1999/xlink" x="0px" y="0px" viewBox="0 0 24 24"
	 style="enable-background:new 0 0 24 24;" xml:space="preserve">
<style type="text/css">
	.st0{fill:#181818;}
</style>
<path class="st0" d="M2,18.3C2,18.7,2.3,19,2.8,19h9.9c0.1,0.5,0.4,1,0.7,1.3c0.5,0.5,1.2,0.7,1.9,0.7s1.3-0.2,1.9-0.7
	c0.4-0.3,0.6-0.8,0.7-1.3h3.4c0.4,0,0.8-0.3,0.8-0.7c0-0.4-0.3-0.8-0.7-0.8c0,0,0,0,0,0h-3.4c-0.1-0.5-0.4-1-0.7-1.3
	c-0.5-0.5-1.2-0.7-1.9-0.7s-1.3,0.2-1.9,0.7c-0.4,0.3-0.6,0.8-0.7,1.3H2.8C2.3,17.5,2,17.8,2,18.3C2,18.2,2,18.3,2,18.3z M2,12
	c0,0.4,0.3,0.7,0.8,0.7h2.4c0.1,0.5,0.4,1,0.7,1.3c0.5,0.5,1.2,0.7,1.9,0.7s1.3-0.2,1.9-0.7c0.4-0.3,0.6-0.8,0.7-1.3h10.9
	c0.4,0,0.8-0.3,0.8-0.7c0-0.4-0.3-0.8-0.7-0.8c0,0,0,0,0,0H10.3c-0.1-0.5-0.4-1-0.7-1.3C9.1,9.5,8.4,9.2,7.8,9.2S6.4,9.5,5.9,9.9
	c-0.4,0.3-0.6,0.8-0.7,1.3H2.8C2.3,11.2,2,11.6,2,12C2,12,2,12,2,12z M2,5.8c0,0.4,0.3,0.7,0.8,0.7h10.9c0.1,0.5,0.4,1,0.7,1.3
	c0.5,0.5,1.2,0.7,1.9,0.7s1.3-0.2,1.9-0.7c0.4-0.3,0.6-0.8,0.7-1.3h2.4c0.4,0,0.8-0.3,0.8-0.7S21.7,5,21.3,5c0,0,0,0,0,0h-2.4
	c-0.1-0.5-0.4-1-0.7-1.3C17.6,3.2,16.9,3,16.3,3s-1.3,0.2-1.9,0.7C14,4,13.8,4.5,13.7,5H2.8C2.3,5,2,5.3,2,5.8C2,5.7,2,5.8,2,5.8z
	 M6.5,12C6.5,12,6.5,12,6.5,12c0-0.5,0.2-0.8,0.4-1c0.2-0.2,0.5-0.3,0.9-0.3c0.3,0,0.7,0.1,0.9,0.3S9,11.5,9,12s-0.2,0.7-0.4,0.9
	s-0.5,0.3-0.9,0.3c-0.3,0-0.7-0.1-0.9-0.3C6.7,12.8,6.5,12.5,6.5,12z M14,18.3C14,18.3,14,18.2,14,18.3c0-0.5,0.2-0.8,0.4-1
	c0.2-0.2,0.5-0.3,0.9-0.3s0.7,0.1,0.9,0.3c0.2,0.2,0.4,0.4,0.4,0.9c0,0,0,0.1,0,0.1c0,0.4-0.2,0.7-0.4,0.9c-0.2,0.2-0.5,0.3-0.9,0.3
	s-0.7-0.1-0.9-0.3C14.2,19,14,18.7,14,18.3z M15,5.8C15,5.8,15,5.7,15,5.8c0-0.5,0.2-0.8,0.4-1c0.2-0.2,0.5-0.3,0.9-0.3
	s0.7,0.1,0.9,0.3c0.2,0.2,0.4,0.4,0.4,0.9c0,0,0,0.1,0,0.1c0,0.4-0.2,0.7-0.4,0.9C16.9,6.9,16.6,7,16.3,7s-0.7-0.1-0.9-0.3
	C15.2,6.5,15,6.2,15,5.8z"/>
</svg>
