<svg xmlns="http://www.w3.org/2000/svg" viewBox="0 0 48 48" width="24px" height="24px">
  <path d="M 13.904297 6 C 12.570477 6 11.302191 6.5932302 10.447266 7.6191406 L 7.0429688 11.705078 A 1.50015 1.50015 0 0 0 7.0410156 11.705078 C 6.3690061 12.513282 6 13.53351 6 14.585938 L 6 36.5 C 6 39.519774 8.4802259 42 11.5 42 L 36.5 42 C 39.519774 42 42 39.519774 42 36.5 L 42 14.585938 C 42 13.533509 41.630675 12.513751 40.957031 11.705078 L 37.552734 7.6191406 C 36.697809 6.5932302 35.429523 6 34.095703 6 L 13.904297 6 z M 13.904297 9 L 22.5 9 L 22.5 13 L 9.8671875 13 L 12.751953 9.5390625 C 13.037028 9.1969729 13.458117 9 13.904297 9 z M 25.5 9 L 34.095703 9 C 34.541883 9 34.962972 9.1969729 35.248047 9.5390625 L 38.130859 13 L 25.5 13 L 25.5 9 z M 9 16 L 39 16 L 39 36.5 C 39 37.898226 37.898226 39 36.5 39 L 11.5 39 C 10.101774 39 9 37.898226 9 36.5 L 9 16 z M 19.5 20 A 1.50015 1.50015 0 1 0 19.5 23 L 28.5 23 A 1.50015 1.50015 0 1 0 28.5 20 L 19.5 20 z" fill="#181818" />
</svg>