<svg xmlns="http://www.w3.org/2000/svg" viewBox="0 0 48 48" width="24px" height="24px">
  <path d="M 18.996094 5.0234375 C 17.822732 4.9942935 16.634501 5.4104206 15.730469 6.3144531 L 6.3144531 15.728516 A 1.50015 1.50015 0 0 0 6.3144531 15.730469 C 4.2487592 17.797645 4.7260031 21.353061 7.2636719 22.802734 L 17.363281 28.576172 L 21.15625 38.056641 A 1.50015 1.50015 0 0 0 23.609375 38.560547 L 30.025391 32.146484 L 40.439453 42.560547 A 1.50015 1.50015 0 1 0 42.560547 40.439453 L 32.146484 30.025391 L 38.5625 23.609375 A 1.50015 1.50015 0 0 0 38.058594 21.15625 L 28.576172 17.363281 L 22.804688 7.2636719 A 1.50015 1.50015 0 0 0 22.804688 7.2617188 C 22.079308 5.9932276 20.826855 5.2404336 19.498047 5.0625 C 19.331946 5.0402583 19.163717 5.0276009 18.996094 5.0234375 z M 18.777344 7.984375 C 18.887026 7.9733548 18.997108 7.9757178 19.105469 7.9902344 C 19.538911 8.0483004 19.945598 8.308441 20.199219 8.7519531 L 26.232422 19.306641 A 1.50015 1.50015 0 0 0 26.976562 19.955078 L 34.832031 23.095703 L 23.095703 34.832031 L 19.955078 26.976562 A 1.50015 1.50015 0 0 0 19.306641 26.230469 L 8.7519531 20.199219 C 7.8662335 19.693241 7.7168954 18.574434 8.4375 17.851562 L 8.4375 17.849609 L 17.851562 8.4375 C 18.122177 8.1668851 18.448297 8.0174357 18.777344 7.984375 z" fill="#181818" />
</svg>