<svg xmlns="http://www.w3.org/2000/svg" viewBox="0 0 48 48" width="24px" height="24px">
  <path d="M 18.980469 5 C 17.769004 4.9770039 16.603719 5.4403281 15.730469 6.3144531 L 6.3144531 15.730469 C 5.3164531 16.728469 4.8510625 18.102953 5.0390625 19.501953 C 5.2270625 20.899953 6.0386719 22.102734 7.2636719 22.802734 L 17.363281 28.576172 L 21.15625 38.056641 C 21.34425 38.524641 21.752094 38.86775 22.246094 38.96875 C 22.347094 38.98975 22.447828 39 22.548828 39 C 22.941828 39 23.325375 38.844547 23.609375 38.560547 L 30.023438 32.144531 L 40.439453 42.560547 A 1.50015 1.50015 0 1 0 42.560547 40.439453 L 32.144531 30.023438 L 38.560547 23.609375 C 38.916547 23.253375 39.06975 22.740094 38.96875 22.246094 C 38.86775 21.752094 38.525641 21.34325 38.056641 21.15625 L 28.574219 17.363281 L 22.804688 7.2636719 C 22.104687 6.0386719 20.900953 5.2270625 19.501953 5.0390625 C 19.327703 5.0156875 19.153535 5.0032852 18.980469 5 z" fill="#181818" />
</svg>