<svg xmlns="http://www.w3.org/2000/svg" viewBox="0 0 32 32" width="24px" height="24px">
  <path d="M 8.0683594 5 C 7.5985478 5 7.0740085 5.0706042 6.6347656 5.4277344 C 6.1955227 5.7848645 6.0182993 6.2800756 5.9160156 6.7441406 C 4.6319924 12.607247 3.3484294 18.470878 2.0664062 24.333984 L 2.0664062 24.335938 C 1.9318566 24.956936 1.9940452 25.635268 2.3847656 26.175781 C 2.7754858 26.716249 3.4591241 27 4.125 27 L 24 27 C 24.514455 27 25.07303 26.820004 25.447266 26.451172 C 25.821502 26.08234 25.979845 25.634726 26.072266 25.212891 L 26.072266 25.210938 C 27.361317 19.31975 28.647572 13.427473 29.931641 7.5351562 C 30.063187 6.9314661 30.019975 6.2444204 29.595703 5.7167969 C 29.171432 5.1891733 28.509634 5 27.896484 5 L 8.0683594 5 z M 8.0683594 7 L 27.896484 7 C 27.959617 7 27.96256 7.0043131 27.992188 7.0078125 C 27.989342 7.0385555 27.99271 7.0442762 27.978516 7.109375 C 26.694585 13.001058 25.406136 18.89439 24.117188 24.785156 L 24.119141 24.783203 C 24.076503 24.977811 24.040539 25.0106 24.050781 25.001953 C 24.038906 25.001318 24.043479 25 24 25 L 4.125 25 C 3.9368759 25 3.9881392 24.979396 4.0058594 25.003906 C 4.0234384 25.028226 3.9740033 24.976286 4.0195312 24.761719 L 4.0195312 24.759766 C 5.3013723 18.897546 6.5852999 13.036101 7.8691406 7.1738281 C 7.8913694 7.0729753 7.905601 7.0435266 7.9179688 7.0097656 C 7.9510846 7.0057327 7.9748357 7 8.0683594 7 z M 11.533203 7.984375 A 1.50015 1.50015 0 0 0 10.40625 10.525391 L 15.25 15.695312 L 7.6132812 21.291016 A 1.50015 1.50015 0 1 0 9.3867188 23.708984 L 18.386719 17.115234 A 1.50015 1.50015 0 0 0 18.59375 14.878906 L 12.59375 8.4746094 A 1.50015 1.50015 0 0 0 11.533203 7.984375 z M 15.5 21 A 1.50015 1.50015 0 1 0 15.5 24 L 19.5 24 A 1.50015 1.50015 0 1 0 19.5 21 L 15.5 21 z" fill="#181818" />
</svg>