<svg xmlns="http://www.w3.org/2000/svg" viewBox="0 0 48 48" width="24px" height="24px">
  <path d="M 24 3 C 20.271429 3 18.240267 3.9470561 16.792969 4.5742188 L 16.791016 4.5742188 C 15.488673 5.1421213 14.704771 6.3187748 14.365234 7.4296875 C 14.025697 8.5406002 14 9.6506515 14 10.640625 L 14 14 L 10.640625 14 C 9.6506515 14 8.5406002 14.0257 7.4296875 14.365234 C 6.3187748 14.704771 5.1421212 15.488626 4.5742188 16.791016 L 4.5742188 16.792969 C 3.947056 18.24022 3 20.271429 3 24 C 3 27.728571 3.9470561 29.759733 4.5742188 31.207031 L 4.5742188 31.208984 C 5.1421212 32.511374 6.3187748 33.295229 7.4296875 33.634766 C 8.5406002 33.974256 9.6506515 34 10.640625 34 L 14 34 L 14 37.359375 C 14 38.349349 14.0257 39.459401 14.365234 40.570312 C 14.704771 41.681225 15.488626 42.857879 16.791016 43.425781 L 16.792969 43.425781 C 18.24022 44.052944 20.271429 45 24 45 C 27.728571 45 29.759733 44.052944 31.207031 43.425781 L 31.208984 43.425781 C 32.511374 42.857879 33.295229 41.681225 33.634766 40.570312 C 33.974256 39.459401 34 38.349349 34 37.359375 L 34 34 L 37.359375 34 C 38.349349 34 39.459401 33.9743 40.570312 33.634766 C 41.681225 33.295229 42.857879 32.511374 43.425781 31.208984 L 43.425781 31.207031 C 44.052944 29.75978 45 27.728571 45 24 C 45 20.271429 44.052944 18.240267 43.425781 16.792969 L 43.425781 16.791016 C 42.857879 15.488673 41.681225 14.704771 40.570312 14.365234 C 39.459401 14.025697 38.349349 14 37.359375 14 L 34 14 L 34 10.640625 C 34 9.6506515 33.974303 8.5406002 33.634766 7.4296875 C 33.295229 6.3187748 32.511374 5.1421213 31.208984 4.5742188 L 31.207031 4.5742188 C 29.75978 3.9470561 27.728571 3 24 3 z M 24 6 C 27.268623 6 28.459017 6.6519922 30.009766 7.3242188 C 30.427376 7.5063161 30.590162 7.7325533 30.765625 8.3066406 C 30.941088 8.8807279 31 9.7405985 31 10.640625 L 31 15.253906 A 1.50015 1.50015 0 0 0 31 15.740234 L 31 19 C 31 20.950062 29.450062 22.5 27.5 22.5 L 20.5 22.5 C 16.928062 22.5 14 25.428062 14 29 L 14 31 L 10.640625 31 C 9.7405985 31 8.8807279 30.941088 8.3066406 30.765625 C 7.7325533 30.590162 7.5063162 30.427376 7.3242188 30.009766 C 6.6519921 28.459017 6 27.268623 6 24 C 6 20.731377 6.6519921 19.540983 7.3242188 17.990234 C 7.5063161 17.572624 7.7325533 17.409838 8.3066406 17.234375 C 8.8807279 17.058912 9.7405985 17 10.640625 17 L 23.5 17 A 1.50015 1.50015 0 1 0 23.5 14 L 17 14 L 17 10.640625 C 17 9.7405985 17.058912 8.8807279 17.234375 8.3066406 C 17.409838 7.7325533 17.572624 7.5063162 17.990234 7.3242188 C 19.540983 6.6519921 20.731377 6 24 6 z M 20.5 9 A 1.5 1.5 0 0 0 20.5 12 A 1.5 1.5 0 0 0 20.5 9 z M 34 17 L 37.359375 17 C 38.259401 17 39.119272 17.05891 39.693359 17.234375 C 40.267447 17.409838 40.493684 17.572624 40.675781 17.990234 C 41.348008 19.540983 42 20.731377 42 24 C 42 27.268623 41.348008 28.459017 40.675781 30.009766 C 40.493684 30.427376 40.267447 30.590162 39.693359 30.765625 C 39.119272 30.941088 38.259401 31 37.359375 31 L 24.5 31 A 1.50015 1.50015 0 1 0 24.5 34 L 31 34 L 31 37.359375 C 31 38.259401 30.94109 39.119272 30.765625 39.693359 C 30.590162 40.267447 30.427376 40.493684 30.009766 40.675781 C 28.459017 41.348008 27.268623 42 24 42 C 20.731377 42 19.540983 41.348008 17.990234 40.675781 C 17.572624 40.493684 17.409838 40.267447 17.234375 39.693359 C 17.058912 39.119272 17 38.259401 17 37.359375 L 17 29 C 17 27.049938 18.549938 25.5 20.5 25.5 L 27.5 25.5 C 31.071938 25.5 34 22.571938 34 19 L 34 17 z M 27.5 36 A 1.5 1.5 0 0 0 27.5 39 A 1.5 1.5 0 0 0 27.5 36 z" fill="#181818" />
</svg>