<svg xmlns="http://www.w3.org/2000/svg" viewBox="0 0 48 48" width="24px" height="24px">
  <path d="M 37.476562 5.9785156 A 1.50015 1.50015 0 0 0 36 7.5 L 36 10.605469 C 32.815876 7.7471496 28.609324 6 24 6 C 14.0764 6 6 14.0764 6 24 C 6 33.9236 14.0764 42 24 42 C 33.9236 42 42 33.9236 42 24 C 42 23.049408 41.906239 22.141442 41.773438 21.273438 A 1.50015 1.50015 0 1 0 38.808594 21.726562 C 38.92579 22.492559 39 23.246592 39 24 C 39 32.3024 32.3024 39 24 39 C 15.6976 39 9 32.3024 9 24 C 9 15.6976 15.6976 9 24 9 C 27.934257 9 31.480462 10.527501 34.150391 13 L 30.5 13 A 1.50015 1.50015 0 1 0 30.5 16 L 37.486328 16 L 37.5 16 A 1.5002494 1.5002494 0 0 0 37.541016 15.998047 A 1.5002494 1.5002494 0 0 0 37.650391 15.992188 A 1.5002494 1.5002494 0 0 0 37.785156 15.972656 A 1.50015 1.50015 0 0 0 37.900391 15.945312 A 1.50015 1.50015 0 0 0 37.929688 15.9375 A 1.5002494 1.5002494 0 0 0 37.943359 15.933594 A 1.50015 1.50015 0 0 0 37.994141 15.914062 A 1.5002494 1.5002494 0 0 0 38.083984 15.880859 A 1.50015 1.50015 0 0 0 38.207031 15.822266 A 1.5002494 1.5002494 0 0 0 38.21875 15.816406 A 1.50015 1.50015 0 0 0 38.335938 15.746094 A 1.5002494 1.5002494 0 0 0 38.347656 15.738281 A 1.50015 1.50015 0 0 0 38.455078 15.65625 A 1.5002494 1.5002494 0 0 0 38.466797 15.646484 A 1.50015 1.50015 0 0 0 38.566406 15.554688 A 1.5002494 1.5002494 0 0 0 38.576172 15.544922 A 1.50015 1.50015 0 0 0 38.666016 15.443359 A 1.5002494 1.5002494 0 0 0 38.675781 15.431641 A 1.50015 1.50015 0 0 0 38.699219 15.398438 A 1.5002494 1.5002494 0 0 0 38.761719 15.310547 A 1.5002494 1.5002494 0 0 0 38.835938 15.179688 A 1.50015 1.50015 0 0 0 38.892578 15.056641 A 1.5002494 1.5002494 0 0 0 38.898438 15.042969 A 1.50015 1.50015 0 0 0 38.941406 14.914062 A 1.5002494 1.5002494 0 0 0 38.945312 14.900391 A 1.50015 1.50015 0 0 0 38.976562 14.767578 A 1.5002494 1.5002494 0 0 0 38.978516 14.753906 A 1.50015 1.50015 0 0 0 38.980469 14.742188 A 1.5002494 1.5002494 0 0 0 38.996094 14.605469 A 1.50015 1.50015 0 0 0 38.998047 14.572266 A 1.5002494 1.5002494 0 0 0 39 14.5 L 39 14.470703 L 39 7.5 A 1.50015 1.50015 0 0 0 37.476562 5.9785156 z" fill="#181818" />
</svg>