<svg xmlns="http://www.w3.org/2000/svg" viewBox="0 0 48 48" width="24px" height="24px">
  <path d="M 14.476562 5.9785156 A 1.50015 1.50015 0 0 0 14.257812 6 L 11.5 6 C 8.468 6 6 8.467 6 11.5 L 6 36.5 C 6 39.533 8.468 42 11.5 42 L 22.574219 42 L 23.431641 39 L 15 39 L 15 27.5 C 15 27.224 15.225 27 15.5 27 L 32.5 27 C 32.775 27 33 27.224 33 27.5 L 33 27.826172 L 35.347656 25.478516 C 34.712656 24.586516 33.675 24 32.5 24 L 15.5 24 C 13.57 24 12 25.57 12 27.5 L 12 39 L 11.5 39 C 10.121 39 9 37.878 9 36.5 L 9 11.5 C 9 10.122 10.121 9 11.5 9 L 13 9 L 13 14.5 C 13 16.414955 14.585045 18 16.5 18 L 28.5 18 C 30.414955 18 32 16.414955 32 14.5 L 32 9.9511719 L 39 16.173828 L 39 22.507812 C 39.954 22.107813 40.983 21.947438 42 22.023438 L 42 15.5 C 42 15.072 41.816094 14.663906 41.496094 14.378906 L 32.496094 6.3789062 C 32.222094 6.1349063 31.867 6 31.5 6 L 30.746094 6 A 1.50015 1.50015 0 0 0 30.259766 6 L 14.746094 6 A 1.50015 1.50015 0 0 0 14.476562 5.9785156 z M 16 9 L 29 9 L 29 14.5 C 29 14.795045 28.795045 15 28.5 15 L 16.5 15 C 16.204955 15 16 14.795045 16 14.5 L 16 9 z M 41.513672 24 C 40.364922 24.00025 39.21725 24.437047 38.34375 25.310547 L 26.326172 37.326172 C 26.015172 37.636172 25.789922 38.023313 25.669922 38.445312 L 24.058594 44.085938 C 23.909594 44.608938 24.053453 45.173594 24.439453 45.558594 C 24.724453 45.843594 25.108953 45.998047 25.501953 45.998047 C 25.639953 45.998047 25.776109 45.978453 25.912109 45.939453 L 31.556641 44.328125 C 31.980641 44.207125 32.367875 43.978875 32.671875 43.671875 L 44.6875 31.65625 C 45.5335 30.80825 46 29.680422 46 28.482422 C 46 27.284422 45.532547 26.157547 44.685547 25.310547 C 43.811047 24.436047 42.662422 23.99975 41.513672 24 z" fill="#181818" />
</svg>