<svg xmlns="http://www.w3.org/2000/svg" viewBox="0 0 48 48" width="24px" height="24px">
  <path d="M 23.5 3 C 18.138339 3 14 6.7788526 14 11.5 L 14 13.40625 C 9.7933386 14.297826 6.6189547 17.707305 6.1894531 22.0625 C 4.4235908 22.22969 3 23.694655 3 25.5 C 3 30.176657 6.823343 34 11.5 34 L 22.5 34 L 22.5 42 L 13.5 42 A 1.50015 1.50015 0 1 0 13.5 45 L 34.5 45 A 1.50015 1.50015 0 1 0 34.5 42 L 25.5 42 L 25.5 34 L 36.5 34 C 41.176657 34 45 30.176657 45 25.5 C 45 23.694655 43.576409 22.22969 41.810547 22.0625 C 41.37118 17.156696 37.757113 13.320699 33 12.40625 L 33 11.5 C 33 6.7788526 28.861661 3 23.5 3 z M 23.5 6 C 27.526339 6 30 8.4891474 30 11.5 L 30 12.162109 C 28.808342 12.34299 27.707276 12.719604 26.830078 13.158203 A 1.50015 1.50015 0 1 0 28.169922 15.841797 C 29.09689 15.378313 30.184493 15 31 15 C 35.081062 15 38.289528 18.063463 38.798828 22 L 9.1992188 22 C 9.6994239 18.617299 12.472046 16 16 16 C 18.97991 16 21.043346 16.923394 22.15625 19.166016 A 1.50015 1.50015 0 1 0 24.84375 17.833984 C 23.330627 14.784879 20.307387 13.355759 17 13.105469 L 17 11.5 C 17 8.4891474 19.473661 6 23.5 6 z M 6.5 25 L 41.5 25 C 41.795045 25 42 25.204955 42 25.5 C 42 28.555343 39.555343 31 36.5 31 L 11.5 31 C 8.444657 31 6 28.555343 6 25.5 C 6 25.204955 6.2049548 25 6.5 25 z" fill="#181818" />
</svg>