<svg xmlns="http://www.w3.org/2000/svg" viewBox="0 0 48 48" width="24px" height="24px">
  <path d="M 26.449219 7.1484375 C 24.684051 7.2292005 23 8.6286274 23 10.601562 L 23 19.087891 L 9.7558594 7.9257812 C 9.2072253 7.463596 8.5721271 7.220121 7.9296875 7.1601562 C 6.0023687 6.9802621 4 8.4492698 4 10.601562 L 4 37.398438 C 4 40.268161 7.5613229 41.92296 9.7558594 40.074219 L 23 28.912109 L 23 37.398438 C 23 40.268161 26.561323 41.92296 28.755859 40.074219 L 44.652344 26.675781 C 46.28886 25.296481 46.289693 22.702387 44.654297 21.322266 A 1.50015 1.50015 0 0 0 44.652344 21.322266 L 28.755859 7.9257812 C 28.070067 7.3480497 27.251568 7.111727 26.449219 7.1484375 z M 7.5214844 10.058594 C 7.6177922 10.080299 7.7203998 10.132936 7.8222656 10.21875 L 23 23.011719 L 23 24.988281 L 7.8222656 37.779297 C 7.4148021 38.122556 7 37.930712 7 37.398438 L 7 10.601562 C 7 10.335425 7.1031007 10.153858 7.2578125 10.082031 C 7.3351684 10.046116 7.4251765 10.036889 7.5214844 10.058594 z M 26.521484 10.058594 C 26.617792 10.080299 26.7204 10.132936 26.822266 10.21875 L 42.71875 23.615234 C 42.979307 23.835113 42.978234 24.16216 42.71875 24.380859 L 26.822266 37.779297 C 26.414802 38.122556 26 37.930712 26 37.398438 L 26 10.601562 C 26 10.335425 26.103101 10.153858 26.257812 10.082031 C 26.335169 10.046116 26.425176 10.036889 26.521484 10.058594 z" fill="#181818" />
</svg>