<svg xmlns="http://www.w3.org/2000/svg" viewBox="0 0 48 48" width="24px" height="24px">
  <path d="M 24 4 C 12.972066 4 4 12.972074 4 24 C 4 35.027926 12.972066 44 24 44 C 35.027934 44 44 35.027926 44 24 C 44 12.972074 35.027934 4 24 4 z M 24 7 C 33.406615 7 41 14.593391 41 24 C 41 33.406609 33.406615 41 24 41 C 15.738643 41 8.8787074 35.142089 7.3300781 27.34375 L 13.058594 29.800781 C 13.031656 30.033582 13 30.266316 13 30.5 C 13 31.847222 13.443681 33.207882 14.376953 34.257812 C 15.310226 35.307744 16.750001 36 18.5 36 C 20.249999 36 21.689774 35.307744 22.623047 34.257812 C 23.556319 33.207881 24 31.847222 24 30.5 C 24 30.239577 23.969036 29.979789 23.935547 29.720703 L 28.732422 25.986328 C 28.821882 25.989735 28.909723 26 29 26 C 32.859 26 36 22.859 36 19 C 36 15.141 32.859 12 29 12 C 25.141 12 22 15.141 22 19 C 22 19.206253 22.013675 19.409547 22.03125 19.611328 L 18.787109 25.013672 C 18.691059 25.009386 18.598032 25 18.5 25 C 16.750001 25 15.310226 25.692256 14.376953 26.742188 C 14.300611 26.828073 14.233878 26.919899 14.164062 27.009766 L 7.0039062 23.941406 C 7.035798 14.562256 14.613196 7 24 7 z M 29 15 C 31.206 15 33 16.794 33 19 C 33 21.206 31.206 23 29 23 C 26.794 23 25 21.206 25 19 C 25 16.794 26.794 15 29 15 z M 29 17 A 2 2 0 0 0 29 21 A 2 2 0 0 0 29 17 z M 18.5 27 C 19.749999 27 20.560226 27.432744 21.126953 28.070312 C 21.69368 28.707881 22 29.597222 22 30.5 C 22 31.402778 21.69368 32.292118 21.126953 32.929688 C 20.560226 33.567256 19.749999 34 18.5 34 C 17.250001 34 16.439774 33.567256 15.873047 32.929688 C 15.335237 32.324651 15.04127 31.491542 15.011719 30.636719 L 17.908203 31.878906 A 1.5005351 1.5005351 0 1 0 19.091797 29.121094 L 16.117188 27.845703 C 16.668412 27.339464 17.410936 27 18.5 27 z" fill="#181818" />
</svg>