<svg xmlns="http://www.w3.org/2000/svg" viewBox="0 0 48 48" width="24px" height="24px">
  <path d="M 24 2.015625 C 21.387634 2.015625 19.218013 3.8421768 16.664062 5.5273438 C 14.110113 7.2125105 11.344327 8.9017694 8.8398438 9.3476562 C 7.1056016 9.6557611 6 11.228901 6 12.892578 L 6 17.492188 C 6 24.595796 8.6211298 31.579857 12.087891 36.873047 C 13.821271 39.519642 15.767736 41.745148 17.775391 43.355469 C 19.783045 44.965789 21.867271 46.015625 24 46.015625 C 26.132729 46.015625 28.216955 44.965789 30.224609 43.355469 C 32.232264 41.745148 34.178729 39.519642 35.912109 36.873047 C 39.37887 31.579857 42 24.595797 42 17.492188 L 42 12.892578 C 42 11.228901 40.894398 9.655761 39.160156 9.3476562 C 36.655673 8.9017694 33.889887 7.2125106 31.335938 5.5273438 C 28.781987 3.8421769 26.612366 2.015625 24 2.015625 z M 22.5 5.6191406 L 22.5 13.382812 A 1.5 1.5 0 0 0 21.5 13 A 1.5 1.5 0 0 0 21.5 16 A 1.5 1.5 0 0 0 22.5 15.615234 L 22.5 21.382812 A 1.5 1.5 0 0 0 21.5 21 A 1.5 1.5 0 0 0 20.085938 23 L 14.912109 23 A 1.5 1.5 0 0 0 13.5 21 A 1.5 1.5 0 0 0 12.085938 23 L 9.6152344 23 C 9.4129319 21.990183 9.2512313 20.97461 9.1425781 19.957031 A 1.5 1.5 0 0 0 9.5 20 A 1.5 1.5 0 0 0 9.5 17 A 1.5 1.5 0 0 0 9 17.087891 L 9 12.892578 C 9 12.552255 9.2194764 12.326677 9.3652344 12.300781 C 11.767167 11.873152 13.983712 10.744777 16 9.5136719 A 1.5 1.5 0 0 0 17.5 11 A 1.5 1.5 0 0 0 18.140625 8.1445312 C 18.197362 8.107128 18.260062 8.0684275 18.316406 8.03125 C 19.71561 7.1080167 20.862891 6.462121 21.861328 5.9550781 A 1.5 1.5 0 0 0 22.492188 5.6230469 C 22.494471 5.6219691 22.497719 5.6202162 22.5 5.6191406 z M 25.5 5.6191406 C 26.606141 6.1407931 27.99703 6.9184083 29.683594 8.03125 C 32.271895 9.7390832 35.275249 11.702668 38.634766 12.300781 C 38.780524 12.326677 39 12.552255 39 12.892578 L 39 17.492188 C 39 19.332407 38.750276 21.175514 38.384766 23 L 25.5 23 L 25.5 5.6191406 z M 13.5 13 A 1.5 1.5 0 0 0 13.5 16 A 1.5 1.5 0 0 0 13.5 13 z M 17.5 17 A 1.5 1.5 0 0 0 17.5 20 A 1.5 1.5 0 0 0 17.5 17 z M 10.373047 26 L 22.5 26 L 22.5 42.634766 C 21.635772 42.322847 20.688604 41.8468 19.652344 41.015625 C 17.964655 39.661946 16.187151 37.655421 14.597656 35.228516 C 12.850652 32.561119 11.385802 29.372002 10.373047 26 z M 26.914062 26 L 32.087891 26 A 1.5 1.5 0 0 0 33.5 28 A 1.5 1.5 0 0 0 34.914062 26 L 37.626953 26 C 36.836946 28.630356 35.765394 31.139761 34.505859 33.386719 A 1.5 1.5 0 0 0 33.5 33 A 1.5 1.5 0 0 0 32.9375 35.888672 C 32.307743 36.798729 31.66025 37.656735 30.998047 38.419922 A 1.5 1.5 0 0 0 29.5 37 A 1.5 1.5 0 0 0 29.490234 40 C 29.106853 40.365518 28.725159 40.712833 28.347656 41.015625 C 27.642359 41.581338 26.982117 41.974571 26.357422 42.271484 A 1.5 1.5 0 0 0 25.5 42 L 25.5 36 A 1.5 1.5 0 0 0 25.5 33 L 25.5 28 A 1.5 1.5 0 0 0 26.914062 26 z M 29.5 29 A 1.5 1.5 0 0 0 29.5 32 A 1.5 1.5 0 0 0 29.5 29 z" fill="#181818" />
</svg>