<svg xmlns="http://www.w3.org/2000/svg" viewBox="0 0 48 48" width="24px" height="24px">
  <path d="M 24 4 C 20.491685 4 17.570396 6.6214322 17.080078 10 L 10.238281 10 A 1.50015 1.50015 0 0 0 9.9804688 9.9785156 A 1.50015 1.50015 0 0 0 9.7578125 10 L 6.5 10 A 1.50015 1.50015 0 1 0 6.5 13 L 8.6386719 13 L 11.15625 39.029297 C 11.427329 41.835926 13.811782 44 16.630859 44 L 31.367188 44 C 34.186411 44 36.570826 41.836168 36.841797 39.029297 L 39.361328 13 L 41.5 13 A 1.50015 1.50015 0 1 0 41.5 10 L 38.244141 10 A 1.50015 1.50015 0 0 0 37.763672 10 L 30.919922 10 C 30.429604 6.6214322 27.508315 4 24 4 z M 24 7 C 25.879156 7 27.420767 8.2681608 27.861328 10 L 20.138672 10 C 20.579233 8.2681608 22.120844 7 24 7 z M 11.650391 13 L 36.347656 13 L 33.855469 38.740234 C 33.730439 40.035363 32.667963 41 31.367188 41 L 16.630859 41 C 15.331937 41 14.267499 40.033606 14.142578 38.740234 L 11.650391 13 z M 23.978516 18 A 1.50015 1.50015 0 0 0 22.939453 18.439453 L 17.939453 23.439453 A 1.50015 1.50015 0 1 0 20.060547 25.560547 L 22.5 23.121094 L 22.5 34.5 A 1.50015 1.50015 0 1 0 25.5 34.5 L 25.5 23.121094 L 27.939453 25.560547 A 1.50015 1.50015 0 1 0 30.060547 23.439453 L 25.060547 18.439453 A 1.50015 1.50015 0 0 0 23.978516 18 z" fill="#181818" />
</svg>