<svg xmlns="http://www.w3.org/2000/svg" viewBox="0 0 48 48" width="24px" height="24px">
  <path d="M 24 6 C 17.929961 6 12.553302 9.0232192 9.296875 13.634766 A 1.5002303 1.5002303 0 1 0 11.748047 15.365234 C 14.465619 11.51678 18.924039 9 24 9 C 32.081522 9 38.623419 15.350806 38.966797 23.345703 L 36.560547 20.939453 A 1.50015 1.50015 0 0 0 35.484375 20.484375 A 1.50015 1.50015 0 0 0 34.439453 23.060547 L 38.939453 27.560547 A 1.50015 1.50015 0 0 0 41.060547 27.560547 L 41.408203 27.212891 A 1.50015 1.50015 0 0 0 41.697266 26.923828 L 45.560547 23.060547 A 1.50015 1.50015 0 1 0 43.439453 20.939453 L 41.921875 22.457031 C 41.135061 13.254043 33.402911 6 24 6 z M 7.9785156 20 A 1.50015 1.50015 0 0 0 6.9394531 20.439453 L 6.5976562 20.78125 A 1.50015 1.50015 0 0 0 6.3007812 21.078125 L 2.4394531 24.939453 A 1.50015 1.50015 0 1 0 4.5605469 27.060547 L 6.078125 25.542969 C 6.8649392 34.745957 14.597089 42 24 42 C 30.070039 42 35.446698 38.97678 38.703125 34.365234 A 1.5002303 1.5002303 0 1 0 36.251953 32.634766 C 33.534381 36.48322 29.075961 39 24 39 C 15.918478 39 9.3765807 32.649194 9.0332031 24.654297 L 11.439453 27.060547 A 1.50015 1.50015 0 1 0 13.560547 24.939453 L 9.0605469 20.439453 A 1.50015 1.50015 0 0 0 7.9785156 20 z" fill="#181818" />
</svg>