<svg xmlns="http://www.w3.org/2000/svg" viewBox="0 0 48 48" width="24px" height="24px">
  <path d="M24.948,4.013c-7.764-0.206-11.928,2.13-14.973,4.412c-2.739,2.055-4.937,5.361-5.578,6.381 c-0.105,0.167-0.049,0.386,0.121,0.487l1.51,0.896C4.944,18.109,4,20.724,4,24c0,1.53,0.189,3.014,0.516,4.447 c0.015,0.078,0.019,0.158,0.035,0.235l0.024-0.005c2.002,8.31,9.191,14.602,17.944,15.248C23.002,43.973,23.486,44,23.969,44v-0.002 C23.98,43.998,23.99,44,24,44c13.521,0,23.952-13.488,18.544-27.716C40.035,9.684,32.007,4.2,24.948,4.013z M22.992,34 c-4.458-0.007-7.792-4.898-4.922-9.599c0.701-1.148,1.893-1.931,3.209-2.208c2.617-0.55,4.522,0.065,5.883,1.938 c0.508,0.699,1.429,2.841,0.331,5.092c-0.231,0.472-0.103,1.041,0.326,1.345l0.828,0.586c-1.288,1.897-3.511,2.784-5.468,2.835 C23.115,33.992,23.055,34,22.992,34z M30.993,22.768c-2.273-3.438-5.929-5.726-9.973-5.726C14.392,17.042,9,22.416,9,29.021 c0,0.454,0.033,0.891,0.068,1.327l-0.733,0.255c-0.374-0.885-0.661-1.814-0.882-2.768c-0.635-3.372,0.245-7.033,2.339-9.612 C12.035,15.46,15.543,14,19.936,14c6.019,0,10.481,4.133,11.711,8.54L30.993,22.768z M24,41c-0.41,0-0.811-0.033-1.214-0.062 C17.359,40.41,12,36.274,12,29.021c0-3.844,2.444-7.122,5.862-8.4C15.531,22.249,14,24.947,14,28c0,4.958,4.03,8.991,8.985,8.999V37 c0.003,0,0.005,0,0.008,0s0.005,0,0.008,0c0.291,0,0.588-0.019,0.887-0.046C30.091,36.488,35,31.283,35,24.938 C35,18.346,28.813,11,19.936,11c-5.038,0-8.415,1.624-10.624,3.462l-0.6-0.55c0.847-1.06,1.91-2.223,3.062-3.087 c2.735-2.051,6.178-3.943,12.84-3.819c6.645,0.124,12.703,4.119,15.103,10.317C44.417,29.461,35.531,41,24,41z" fill="#181818" />
</svg>