<svg id="Layer_1" data-name="Layer 1" xmlns="http://www.w3.org/2000/svg" viewBox="-10 -10 106 106">
    <path
        d="M10,50.5l3.17-10.9a28.36,28.36,0,0,1,1.38-3.77,32.63,32.63,0,0,1,3.09-5.33,42.15,42.15,0,0,1,4.5-5.42A54.14,54.14,0,0,1,33.6,15.84,40.88,40.88,0,0,1,53.55,10,38.76,38.76,0,0,1,69,13c5.36,2.23,7.48,4.7,8.61,6.37a13.3,13.3,0,0,1,2.52,7.89,13.27,13.27,0,0,1-1.76,6.19,14.61,14.61,0,0,1-4.92,5.29l-.12.07a15.49,15.49,0,0,1-6.59,2A24.52,24.52,0,0,1,57,39.6c-3.74-1.06-5.67-1.79-7.21-2.37a29.28,29.28,0,0,0-3.6-1.17,32.62,32.62,0,0,0-11.56-.79A27.93,27.93,0,0,0,21.31,40a25.62,25.62,0,0,0-3.2,2.64ZM38.21,29.07a38.7,38.7,0,0,1,9.42,1.17,33.84,33.84,0,0,1,4.25,1.38c1.45.54,3.24,1.21,6.73,2.2,3.22.91,5.18,1.3,7.57,1a9.82,9.82,0,0,0,4.08-1.23,8.43,8.43,0,0,0,2.84-3.09l.05-.1a7.07,7.07,0,0,0,1-3.32,7.36,7.36,0,0,0-1.43-4.33c-.45-.67-1.68-2.47-6-4.27a32.54,32.54,0,0,0-13-2.56,34.83,34.83,0,0,0-17,5,47.87,47.87,0,0,0-10.27,8.27C25.68,30,25,30.8,24.3,31.61A33.47,33.47,0,0,1,34,29.3,38.75,38.75,0,0,1,38.21,29.07Z"
        transform="translate(-9.97 -9.97)" style="fill:#181818" />
    <path
        d="M21.41,65.1c-.3,0-.6,0-.91,0A11.49,11.49,0,0,1,10.38,54.67l-.11-1.26.82-1a81.07,81.07,0,0,1,6.42-6.69c2.93-2.72,4.87-4.52,8-6a23.82,23.82,0,0,1,7.7-2.22l3.26-.37.07,3.28a37.12,37.12,0,0,1-.21,4.94c-.35,3.6-.76,7.71-3.25,11.69C31.52,59.54,27.41,65.1,21.41,65.1Zm-4.82-9.82a5.4,5.4,0,0,0,.72,1.49,5.46,5.46,0,0,0,3.83,2.32c3.15.26,6-3.9,6.81-5.19C29.69,51.1,30,48,30.32,44.76l.06-.53a17.64,17.64,0,0,0-2.31.92c-2.18,1.06-3.56,2.3-6.48,5C19.85,51.78,18.17,53.49,16.59,55.28Z"
        transform="translate(-9.97 -9.97)" style="fill:#181818" />
    <path d="M-6.15,38" transform="translate(-9.97 -9.97)"
        style="fill:none;stroke:#181818;stroke-miterlimit:10;stroke-width:6px" />
    <path
        d="M52.79,96a38.72,38.72,0,0,1-15.06-3c-5.31-2.21-7.45-4.66-8.58-6.32a13.52,13.52,0,0,1-2.55-7.95,13.26,13.26,0,0,1,1.76-6.18,14.58,14.58,0,0,1,4.91-5.29l.12-.07a15.71,15.71,0,0,1,6.6-2,24.77,24.77,0,0,1,9.76,1.24c3.73,1.06,5.65,1.79,7.2,2.37a29.28,29.28,0,0,0,3.6,1.17,32.55,32.55,0,0,0,11.55.79A28,28,0,0,0,85.41,66a25.59,25.59,0,0,0,3.18-2.64l8-7.89L93.58,66.31a27.29,27.29,0,0,1-1.4,3.82,31.17,31.17,0,0,1-3.07,5.32,42.53,42.53,0,0,1-4.51,5.36,53.83,53.83,0,0,1-11.48,9.24,41,41,0,0,1-20,5.92ZM36.45,72.3a8.49,8.49,0,0,0-2.83,3.09l0,.1a7.07,7.07,0,0,0-1,3.32A7.28,7.28,0,0,0,34,83.13l.06.09c.4.59,1.63,2.39,6,4.19a32.51,32.51,0,0,0,13,2.56,34.81,34.81,0,0,0,17-5,48.64,48.64,0,0,0,10.28-8.28c.74-.75,1.44-1.51,2.1-2.3a33.73,33.73,0,0,1-9.71,2.3,38.3,38.3,0,0,1-13.59-.94,33.84,33.84,0,0,1-4.25-1.38c-1.45-.54-3.24-1.22-6.73-2.2-3.22-.91-5.18-1.3-7.57-1.05A9.86,9.86,0,0,0,36.45,72.3Z"
        transform="translate(-9.97 -9.97)" style="fill:#181818" />
    <path
        d="M70.3,68.78l-.08-3.27a42.42,42.42,0,0,1,.17-4.92c.36-3.62.77-7.72,3.27-11.72,3.39-5.49,8-8.41,12.53-8A11.48,11.48,0,0,1,96.36,51.27l.11,1.26-.82,1a79.82,79.82,0,0,1-6.44,6.69c-3.06,2.83-4.91,4.54-8,6a23.69,23.69,0,0,1-7.69,2.22Zm15-21.94c-3,0-5.73,3.95-6.5,5.2-1.76,2.81-2.08,6-2.38,9.14,0,.18,0,.36-.05.54a19.21,19.21,0,0,0,2.31-.93c2.26-1.09,3.68-2.4,6.5-5,1.75-1.62,3.43-3.33,5-5.12a5.26,5.26,0,0,0-.72-1.49,5.46,5.46,0,0,0-3.86-2.32Z"
        transform="translate(-9.97 -9.97)" style="fill:#181818" />
    <path d="M112.7,67.91" transform="translate(-9.97 -9.97)"
        style="fill:none;stroke:#181818;stroke-miterlimit:10;stroke-width:6px" />
</svg>