<svg id="Layer_1" data-name="Layer 1" xmlns="http://www.w3.org/2000/svg" viewBox="-10 -10 106.72 105.94">
    <defs>
        <style>.cls-1{fill:none;stroke:#181818;stroke-miterlimit:10;stroke-width:6px;}</style>
    </defs>
    <path class="cls-1"
        d="M10.65,35.47a27.12,27.12,0,0,1,1.24-3.4,29.87,29.87,0,0,1,2.79-4.8,39,39,0,0,1,4.2-5.05,51.18,51.18,0,0,1,10.9-8.78A37.82,37.82,0,0,1,48.27,8a35.8,35.8,0,0,1,14.19,2.79c4.82,2,6.51,4.13,7.29,5.28a10.47,10.47,0,0,1,2,6.2A10.08,10.08,0,0,1,70.37,27a11.43,11.43,0,0,1-3.92,4.23,12.5,12.5,0,0,1-5.32,1.65c-3,.32-5.45-.22-8.71-1.14-6.67-1.89-7.34-2.67-10.89-3.56a35.75,35.75,0,0,0-12.62-.86,30.77,30.77,0,0,0-14.65,5.17A28.81,28.81,0,0,0,10.65,35.47Z"
        transform="translate(-4.63 -5.03)" />
    <path class="cls-1"
        d="M28.13,35.54a20.85,20.85,0,0,0-6.73,1.94c-2.63,1.27-4.28,2.78-7.22,5.51A77.38,77.38,0,0,0,8,49.43a8.59,8.59,0,0,0,1.46,4.06,8.46,8.46,0,0,0,5.95,3.61c5.32.49,9.09-5.57,9.72-6.59,2.11-3.38,2.47-7,2.81-10.42A35.55,35.55,0,0,0,28.13,35.54Z"
        transform="translate(-4.63 -5.03)" />
    <path class="cls-1" d="M-11.52,33" transform="translate(-4.63 -5.03)" />
    <path class="cls-1"
        d="M85.32,60.53a24.25,24.25,0,0,1-1.24,3.4,28.63,28.63,0,0,1-2.78,4.8,39,39,0,0,1-4.2,5,51.18,51.18,0,0,1-10.9,8.78A37.82,37.82,0,0,1,47.71,88a35.8,35.8,0,0,1-14.19-2.79c-4.82-2-6.51-4.13-7.29-5.28a10.4,10.4,0,0,1-2-6.2A10.08,10.08,0,0,1,25.61,69a11.44,11.44,0,0,1,3.91-4.23,12.57,12.57,0,0,1,5.33-1.65c3-.32,5.45.22,8.71,1.14,6.67,1.89,7.34,2.67,10.89,3.56a35.7,35.7,0,0,0,12.61.86,30.76,30.76,0,0,0,14.66-5.17A27.87,27.87,0,0,0,85.32,60.53Z"
        transform="translate(-4.63 -5.03)" />
    <path class="cls-1"
        d="M67.85,60.46a20.74,20.74,0,0,0,6.72-1.94c2.64-1.27,4.28-2.78,7.23-5.51A77.38,77.38,0,0,0,88,46.57a8.59,8.59,0,0,0-1.46-4.06,8.46,8.46,0,0,0-6-3.61c-5.32-.49-9.08,5.57-9.71,6.59-2.11,3.38-2.48,7-2.82,10.42A37.16,37.16,0,0,0,67.85,60.46Z"
        transform="translate(-4.63 -5.03)" />
    <path class="cls-1" d="M107.33,62.94" transform="translate(-4.63 -5.03)" />
</svg>