<svg xmlns="http://www.w3.org/2000/svg" viewBox="0 0 48 48" width="24px" height="24px">
  <path d="M43.326,19.879L27.805,4.609C26.738,3.559,25.331,2.994,23.829,3c-1.497,0.012-2.9,0.607-3.95,1.674L4.609,20.195 C3.56,21.262,2.988,22.674,3,24.171s0.607,2.9,1.674,3.95l15.521,15.27C21.251,44.43,22.645,45,24.125,45c0.016,0,0.031,0,0.047,0 c1.497-0.012,2.9-0.607,3.95-1.674l15.27-15.521c1.05-1.067,1.622-2.479,1.609-3.977S44.393,20.929,43.326,19.879z M22.5,14.499 c0-0.829,0.671-1.5,1.5-1.5s1.5,0.671,1.5,1.5v12c0,0.829-0.671,1.5-1.5,1.5s-1.5-0.671-1.5-1.5V14.499z M24,34.999 c-1.105,0-2-0.895-2-2c0-1.105,0.895-2,2-2s2,0.895,2,2C26,34.103,25.105,34.999,24,34.999z" fill="#181818" />
</svg>