<svg xmlns="http://www.w3.org/2000/svg" viewBox="0 0 48 48" width="24px" height="24px">
  <path d="M 23.828125 3.0097656 C 22.390615 3.0213996 20.958195 3.5768905 19.878906 4.6738281 L 4.609375 20.195312 C 2.450831 22.389153 2.4799529 25.962516 4.6738281 28.121094 L 20.195312 43.390625 C 22.389153 45.549169 25.962516 45.520044 28.121094 43.326172 L 43.390625 27.806641 A 1.50015 1.50015 0 0 0 43.392578 27.804688 C 45.549404 25.609855 45.520051 22.037484 43.326172 19.878906 L 27.804688 4.609375 C 26.707767 3.530103 25.265635 2.9981313 23.828125 3.0097656 z M 23.853516 5.9902344 C 24.517005 5.9848644 25.182092 6.2373189 25.701172 6.7480469 L 41.222656 22.017578 C 42.260781 23.039 42.273124 24.663957 41.251953 25.703125 L 25.982422 41.222656 C 24.961 42.260781 23.336987 42.273406 22.298828 41.251953 L 6.7773438 25.982422 C 5.739219 24.961 5.7265908 23.336987 6.7480469 22.298828 L 22.017578 6.7773438 C 22.528289 6.2582813 23.190027 5.9956001 23.853516 5.9902344 z M 23.976562 12.978516 A 1.50015 1.50015 0 0 0 22.5 14.498047 L 22.5 26.498047 A 1.50015 1.50015 0 1 0 25.5 26.498047 L 25.5 14.498047 A 1.50015 1.50015 0 0 0 23.976562 12.978516 z M 24 30.998047 A 2 2 0 0 0 24 34.998047 A 2 2 0 0 0 24 30.998047 z" fill="#181818" />
</svg>