<?xml version="1.0" encoding="utf-8"?>
<!-- Generator: Adobe Illustrator 23.0.5, SVG Export Plug-In . SVG Version: 6.00 Build 0)  -->
<svg version="1.1" id="Layer_1" xmlns="http://www.w3.org/2000/svg" xmlns:xlink="http://www.w3.org/1999/xlink" x="0px" y="0px"
	 viewBox="0 0 24 24" style="enable-background:new 0 0 24 24;" xml:space="preserve">
<style type="text/css">
	.st0{fill:#181818;}
</style>
<path class="st0" d="M20.3,6.2h-17c0-0.9,0.8-1.7,1.7-1.7h13.7C19.6,4.5,20.3,5.3,20.3,6.2z"/>
<path class="st0" d="M21.6,8.5C21.5,7.6,20.8,7,19.9,7H3.8C2.9,7,2.2,7.6,2.1,8.5c0,0.1,0,0.1,0,0.2v11.2c0,0.9,0.7,1.6,1.7,1.6
	h16.2c0.9,0,1.6-0.7,1.7-1.6V8.7C21.6,8.6,21.6,8.5,21.6,8.5z M19.9,19.8H3.8V8.7h16.1V19.8z"/>
<path class="st0" d="M19.2,3.8H4.5c0-0.9,0.8-1.7,1.7-1.7h11.2C18.4,2.1,19.2,2.9,19.2,3.8z"/>
<path class="st0" d="M2.1,8.5c0,0.1,0,0.1,0,0.2L2.1,8.5L2.1,8.5z"/>
<path class="st0" d="M21.6,8.5v0.2C21.6,8.6,21.6,8.5,21.6,8.5L21.6,8.5z"/>
<path class="st0" d="M15.4,15.1l-2.9,3c-0.1,0.1-0.2,0.1-0.3,0.2c0,0-0.1,0-0.1,0c-0.1,0-0.1,0-0.2,0l-0.2,0c0,0-0.1,0-0.1,0
	l-0.3-0.2l-2.9-3C8.1,15,8,14.8,8,14.5c0-0.2,0.1-0.4,0.3-0.6c0.3-0.3,0.9-0.3,1.2,0l1.5,1.5v-4.5c0-0.5,0.4-0.8,0.9-0.8
	c0.5,0,0.9,0.4,0.9,0.8v4.5l1.5-1.5c0.2-0.2,0.4-0.3,0.6-0.3c0.2,0,0.4,0.1,0.6,0.3C15.7,14.3,15.7,14.8,15.4,15.1z"/>
</svg>
