<svg xmlns="http://www.w3.org/2000/svg" viewBox="0 0 48 48" width="24px" height="24px">
  <path d="M 8.5 6 C 7.1364058 6 6 7.1364058 6 8.5 L 6 20.5 C 6 21.863594 7.1364058 23 8.5 23 L 20.5 23 C 21.863594 23 23 21.863594 23 20.5 L 23 8.5 C 23 7.1364058 21.863594 6 20.5 6 L 8.5 6 z M 27.5 6 C 26.136406 6 25 7.1364058 25 8.5 L 25 20.5 C 25 21.863594 26.136406 23 27.5 23 L 39.5 23 C 40.863594 23 42 21.863594 42 20.5 L 42 8.5 C 42 7.1364058 40.863594 6 39.5 6 L 27.5 6 z M 9 9 L 20 9 L 20 20 L 9 20 L 9 9 z M 28 9 L 39 9 L 39 20 L 28 20 L 28 9 z M 8.5 25 C 7.1364058 25 6 26.136406 6 27.5 L 6 39.5 C 6 40.863594 7.1364058 42 8.5 42 L 20.5 42 C 21.863594 42 23 40.863594 23 39.5 L 23 27.5 C 23 26.136406 21.863594 25 20.5 25 L 8.5 25 z M 27.5 25 C 26.136406 25 25 26.136406 25 27.5 L 25 39.5 C 25 40.863594 26.136406 42 27.5 42 L 39.5 42 C 40.863594 42 42 40.863594 42 39.5 L 42 27.5 C 42 26.136406 40.863594 25 39.5 25 L 27.5 25 z M 9 28 L 20 28 L 20 39 L 9 39 L 9 28 z M 28 28 L 39 28 L 39 39 L 28 39 L 28 28 z" fill="#181818" />
</svg>